<?xml version="1.0" encoding="utf-8"?>
<!-- Generator: Adobe Illustrator 22.1.0, SVG Export Plug-In . SVG Version: 6.00 Build 0)  -->
<svg version="1.1" id="Layer_1" xmlns="http://www.w3.org/2000/svg" xmlns:xlink="http://www.w3.org/1999/xlink" x="0px" y="0px"
	 width="64" height="64"
	 viewBox="0 0 64 64" style="enable-background:new 0 0 64 64;" xml:space="preserve">
<style type="text/css">
	.st0{fill:#D3D3D3;stroke:#D3D3D3;stroke-width:2.07;stroke-linecap:round;stroke-miterlimit:10;}
	.st1{fill:none;stroke:#FFFFFF;stroke-width:2;stroke-linecap:round;stroke-miterlimit:10;}
	.st2{fill:none;stroke:#808080;stroke-width:2;stroke-linecap:round;stroke-linejoin:round;}
	.st3{fill:none;stroke:#808080;stroke-width:2;stroke-linecap:round;stroke-miterlimit:10;}
</style>
<g id="V4">
	<path class="st0" d="M7,6h50c0.5,0,1,0.4,1,0.9c0,0,0,0.1,0,0.1v49.7c0,0.5-0.4,1-0.9,1c0,0-0.1,0-0.1,0H7c-0.5,0-1-0.4-1-0.9
		c0,0,0-0.1,0-0.1V7c0-0.5,0.4-1,0.9-1C6.9,6,7,6,7,6z"/>
	<path class="st1" d="M6,44l15.1-18.9c0.4-0.4,0.9-0.5,1.4-0.2l0.2,0.2l6.8,10.2c0.2,0.4,0.7,0.5,1.1,0.4L41.5,32
		c0.2-0.1,0.5-0.1,0.7,0L58,38"/>
	<path class="st1" d="M6,52l13.4-15.3c0.4-0.4,1-0.5,1.4-0.1l8.2,6.6c0.4,0.3,1.1,0.2,1.4-0.2c0-0.1,0.1-0.1,0.1-0.2l10.7-21.3
		c0.2-0.5,0.7-0.7,1.2-0.5c0,0,0.1,0,0.1,0.1c0.2,0.1,0.3,0.2,0.4,0.4L58,46"/>
	<line class="st2" x1="6" y1="6" x2="6" y2="58"/>
	<line class="st2" x1="58" y1="58" x2="6" y2="58"/>
	<line class="st3" x1="6.2" y1="31.6" x2="10.2" y2="31.6"/>
	<line class="st3" x1="32" y1="53.6" x2="32" y2="57.6"/>
	<line class="st3" x1="58" y1="53.6" x2="58" y2="57.6"/>
	<line class="st3" x1="6.2" y1="6" x2="10.2" y2="6"/>
</g>
</svg>
