<?xml version="1.0" encoding="utf-8"?>
<!-- Generator: Adobe Illustrator 22.1.0, SVG Export Plug-In . SVG Version: 6.00 Build 0)  -->
<svg version="1.1" id="Layer_1" xmlns="http://www.w3.org/2000/svg" xmlns:xlink="http://www.w3.org/1999/xlink" x="0px" y="0px"
	 width="64" height="64"
	 viewBox="0 0 64 64" style="enable-background:new 0 0 64 64;" xml:space="preserve">
<style type="text/css">
	.st0{fill:#96C3E5;}
	.st1{fill:none;stroke:#0067C5;stroke-width:2;stroke-linecap:round;stroke-miterlimit:10;}
	.st2{fill:none;stroke:#FFFFFF;stroke-width:2;stroke-linecap:round;stroke-miterlimit:10;}
</style>
<path class="st0" d="M17.3,26.4h30c0.6,0,1,0.4,1,1v27c0,0.6-0.4,1-1,1h-30c-0.6,0-1-0.4-1-1v-27C16.3,26.8,16.8,26.4,17.3,26.4z"/>
<path class="st1" d="M16.4,53.7c0,0.5,0.4,1,0.9,1h30.1c0.5,0,0.9-0.5,0.9-1v-44c0-0.5-0.4-1-0.9-1H12.7c-0.6,0-1,0.5-0.9,1
	c0,0.2,0.1,0.4,0.2,0.6l4.1,8.3c0.1,0.1,0.1,0.3,0.1,0.4L16.4,53.7z"/>
<line class="st2" x1="36.3" y1="33.3" x2="44.3" y2="33.3"/>
<line class="st2" x1="36.3" y1="45.3" x2="44.3" y2="45.3"/>
<line class="st2" x1="36.3" y1="39.3" x2="44.3" y2="39.3"/>
</svg>
