<?xml version="1.0" encoding="utf-8"?>
<!-- Generator: Adobe Illustrator 23.0.4, SVG Export Plug-In . SVG Version: 6.00 Build 0)  -->
<svg version="1.1" id="Box_-_Final" xmlns="http://www.w3.org/2000/svg" xmlns:xlink="http://www.w3.org/1999/xlink" x="0px"
	 y="0px" viewBox="0 0 64 64" style="enable-background:new 0 0 64 64;" xml:space="preserve">
<style type="text/css">
	.st0{fill:#96C3E5;}
	.st1{fill:none;stroke:#0067C5;stroke-width:2;stroke-miterlimit:10;}
	.st2{fill:none;stroke:#0067C5;stroke-width:2;stroke-linecap:round;stroke-miterlimit:10;}
	.st3{fill:#FFFFFF;}
	.st4{fill:none;stroke:#FFFFFF;stroke-width:2;stroke-miterlimit:10;}
</style>
<g>
	<path class="st0" d="M7,6h50c0.6,0,1,0.4,1,1v50c0,0.6-0.4,1-1,1H7c-0.6,0-1-0.4-1-1V7C6,6.4,6.4,6,7,6z"/>
	<path class="st1" d="M7,6h50c0.6,0,1,0.4,1,1v50c0,0.6-0.4,1-1,1H7c-0.6,0-1-0.4-1-1V7C6,6.4,6.4,6,7,6z"/>
	<line class="st1" x1="22" y1="12" x2="22" y2="44"/>
	<line class="st2" x1="18" y1="12" x2="26" y2="12"/>
	<line class="st2" x1="18" y1="44" x2="26" y2="44"/>
	<path class="st3" d="M19,18h6c0.6,0,1,0.4,1,1v18c0,0.6-0.4,1-1,1h-6c-0.6,0-1-0.4-1-1V19C18,18.4,18.4,18,19,18z"/>
	<path class="st4" d="M19,18h6c0.6,0,1,0.4,1,1v18c0,0.6-0.4,1-1,1h-6c-0.6,0-1-0.4-1-1V19C18,18.4,18.4,18,19,18z"/>
	<line class="st1" x1="42" y1="20" x2="42" y2="52"/>
	<line class="st2" x1="38" y1="20" x2="46" y2="20"/>
	<line class="st2" x1="38" y1="52" x2="46" y2="52"/>
	<path class="st3" d="M39,26h6c0.6,0,1,0.4,1,1v18c0,0.6-0.4,1-1,1h-6c-0.6,0-1-0.4-1-1V27C38,26.4,38.4,26,39,26z"/>
	<path class="st4" d="M39,26h6c0.6,0,1,0.4,1,1v18c0,0.6-0.4,1-1,1h-6c-0.6,0-1-0.4-1-1V27C38,26.4,38.4,26,39,26z"/>
</g>
</svg>
