<svg width="64" height="64" viewBox="0 0 64 64" fill="none" xmlns="http://www.w3.org/2000/svg">
<path d="M33.8398 23.7547L42.4256 15.1689" stroke="#99C9E8" stroke-width="2" stroke-linecap="round"/>
<path d="M19 58.5858L25.5858 52" stroke="#99C9E8" stroke-width="2" stroke-linecap="round"/>
<path d="M42 45.5858L48.5858 39" stroke="#99C9E8" stroke-width="2" stroke-linecap="round"/>
<path d="M23 17V11" stroke="#99C9E8" stroke-width="2" stroke-linecap="round"/>
<path d="M22.4316 42.1715L33.8441 35.5825L45.2565 42.1715V55.3495L33.8441 61.9385L22.4316 55.3495V42.1715Z" fill="white" stroke="#99C9E8" stroke-width="2"/>
<path fill-rule="evenodd" clip-rule="evenodd" d="M40.8002 9.06767C42.1909 8.86846 43.6976 9.09947 45.0649 9.88882C48.2766 11.7434 49.3737 15.8399 47.52 19.0525C46.0993 21.5122 43.3721 22.7626 40.7805 22.3595C39.9388 22.238 39.1083 21.9415 38.3573 21.5075C35.1447 19.652 34.0467 15.5555 35.9022 12.3448C36.9665 10.4986 38.8025 9.37163 40.8002 9.06767Z" fill="#99C9E8"/>
<path fill-rule="evenodd" clip-rule="evenodd" d="M27.7435 10.6368C26.1537 13.3899 22.633 14.3332 19.8799 12.7434C17.125 11.1536 16.1834 7.63287 17.7715 4.87973C19.3613 2.12659 22.882 1.18159 25.6369 2.77309C28.39 4.36117 29.3333 7.88362 27.7435 10.6368Z" fill="white"/>
<path d="M11.9199 23.4469L23.3324 16.8579L34.7448 23.4469V36.6249L23.3324 43.2138L11.9199 36.6249V23.4469Z" fill="white" stroke="#99C9E8" stroke-width="2"/>
</svg>
