<?xml version="1.0" encoding="UTF-8"?>
<svg width="64px" height="64px" viewBox="0 0 64 64" version="1.1" xmlns="http://www.w3.org/2000/svg" xmlns:xlink="http://www.w3.org/1999/xlink">
    <!-- Generator: Sketch 63.1 (92452) - https://sketch.com -->
    <title>file_node_alt_outline_64x64</title>
    <desc>Created with Sketch.</desc>
    <g id="file_node_alt_outline_64x64" stroke="none" stroke-width="1" fill="none" fill-rule="evenodd">
        <path d="M38,6 L38,16 C38,17.1045695 38.8954305,18 40,18 L50,18 L50,18" id="Path-7" stroke="#FFFFFF" stroke-width="2"></path>
        <path d="M14,8 L14,56 C14,57.1045695 14.8954305,58 16,58 L48,58 C49.1045695,58 50,57.1045695 50,56 L50,18.8284271 C50,18.2979941 49.7892863,17.7892863 49.4142136,17.4142136 L38.5857864,6.58578644 C38.2107137,6.21071368 37.7020059,6 37.1715729,6 L16,6 C14.8954305,6 14,6.8954305 14,8 Z" id="Body" stroke="#FFFFFF" stroke-width="2"></path>
        <g id="Table" transform="translate(19.000000, 34.000000)" stroke="#FFFFFF" stroke-width="2">
            <rect id="Rectangle" x="1" y="1" width="24" height="18" rx="2"></rect>
            <line x1="13" y1="0" x2="13" y2="19" id="Path-8"></line>
            <line x1="19" y1="0" x2="19" y2="19" id="Path-8"></line>
            <line x1="7" y1="0" x2="7" y2="19" id="Path-8"></line>
            <line x1="1" y1="7" x2="25" y2="7" id="Path-9"></line>
            <line x1="1" y1="13" x2="25" y2="13" id="Path-9"></line>
        </g>
        <line x1="19" y1="20.0354" x2="35" y2="20.0354" id="Stroke-17" stroke="#FFFFFF" stroke-width="2" stroke-linecap="round"></line>
        <line x1="19" y1="28.0354" x2="41" y2="28.0354" id="Stroke-17" stroke="#FFFFFF" stroke-width="2" stroke-linecap="round"></line>
        <line x1="19" y1="12.0354" x2="31" y2="12.0354" id="Stroke-15" stroke="#FFFFFF" stroke-width="2" stroke-linecap="round"></line>
    </g>
</svg>