<?xml version="1.0" encoding="utf-8"?>
<!-- Generator: Adobe Illustrator 22.1.0, SVG Export Plug-In . SVG Version: 6.00 Build 0)  -->
<svg version="1.1" id="Layer_1" xmlns="http://www.w3.org/2000/svg" xmlns:xlink="http://www.w3.org/1999/xlink" x="0px" y="0px"
	 width="64" height="64"
	 viewBox="0 0 64 64" style="enable-background:new 0 0 64 64;" xml:space="preserve">
<style type="text/css">
	.st0{fill:none;stroke:#FFFFFF;stroke-width:1.1;stroke-miterlimit:10;}
	.st1{fill:none;stroke:#FFFFFF;stroke-width:1.1;stroke-linecap:round;stroke-miterlimit:10;}
	.st2{fill:#FFFFFF;stroke:#FFFFFF;stroke-width:1.1;stroke-linecap:round;stroke-miterlimit:10;}
	.st3{fill:none;stroke:#FFFFFF;stroke-width:3;stroke-linecap:round;stroke-miterlimit:10;}
</style>
<g id="Left">
	<path class="st0" d="M19.5,19.4V37c0,1.8-1.5,3.3-3.3,3.3h-1.1c-1.8,0-3.3-1.5-3.3-3.3V19.4H19.5z"/>
	<line class="st1" x1="9.6" y1="18.3" x2="21.7" y2="18.3"/>
	<path class="st2" d="M15.8,28.1c-0.3,0.7-0.9,1.2-1.6,1.4c-0.2,0.1-0.3,0.3-0.3,0.5v6.7c0,0.8,0.5,1.5,1.3,1.7
		c0.9,0.2,1.8-0.4,2-1.3c0-0.1,0-0.2,0-0.3v-7.7c0-0.5-0.2-0.9-0.5-1.2C16.4,27.7,16,27.8,15.8,28.1L15.8,28.1z"/>
</g>
<g id="Mid">
	<path class="st0" d="M35.5,19.4V37c0,1.8-1.5,3.3-3.3,3.3h-1.1c-1.8,0-3.3-1.5-3.3-3.3V19.4H35.5z"/>
	<line class="st1" x1="25.6" y1="18.3" x2="37.7" y2="18.3"/>
	<path class="st2" d="M31.8,28.1c-0.3,0.7-0.9,1.2-1.6,1.4c-0.2,0.1-0.3,0.3-0.3,0.5v6.7c0,0.8,0.5,1.5,1.3,1.7
		c0.9,0.2,1.8-0.4,2-1.3c0-0.1,0-0.2,0-0.3v-7.7c0-0.5-0.2-0.9-0.5-1.2C32.4,27.7,32,27.8,31.8,28.1L31.8,28.1z"/>
</g>
<g id="Right">
	<path class="st0" d="M51.6,19.4V37c0,1.8-1.5,3.3-3.3,3.3h-1.1c-1.8,0-3.3-1.5-3.3-3.3V19.4H51.6z"/>
	<line class="st1" x1="41.7" y1="18.3" x2="53.8" y2="18.3"/>
	<path class="st2" d="M47.9,28.1c-0.3,0.7-0.9,1.2-1.6,1.4C46.1,29.6,46,29.8,46,30v6.7c0,0.8,0.5,1.5,1.3,1.7
		c0.9,0.2,1.8-0.4,2-1.3c0-0.1,0-0.2,0-0.3v-7.7c0-0.5-0.2-0.9-0.5-1.2C48.5,27.7,48.1,27.8,47.9,28.1L47.9,28.1z"/>
</g>
<g id="Rack">
	<line class="st3" x1="58" y1="16" x2="58" y2="48"/>
	<line class="st3" x1="6" y1="16" x2="6" y2="48"/>
	<line class="st3" x1="4" y1="44" x2="60" y2="44"/>
	<line class="st3" x1="4" y1="24.3" x2="60" y2="24.3"/>
</g>
</svg>
