<?xml version="1.0" encoding="utf-8"?>
<!-- Generator: Adobe Illustrator 22.1.0, SVG Export Plug-In . SVG Version: 6.00 Build 0)  -->
<svg version="1.1" id="Layer_1" xmlns="http://www.w3.org/2000/svg" xmlns:xlink="http://www.w3.org/1999/xlink" x="0px" y="0px"
	 width="64" height="64"
	 viewBox="0 0 64 64" style="enable-background:new 0 0 64 64;" xml:space="preserve">
<style type="text/css">
	.st0{fill:#FFA500;}
	.st1{fill:#FFCC81;stroke:#FFCC81;stroke-width:2;stroke-miterlimit:10;}
	.st2{fill:none;stroke:#FFFFFF;stroke-width:1.5;stroke-linecap:round;stroke-miterlimit:10;}
	.st3{fill:none;stroke:#FFFFFF;stroke-width:2;stroke-linecap:round;stroke-miterlimit:10;}
</style>
<g id="V4">
	<g id="V3-2">
		<path class="st0" d="M26.7,25.2H6.9c0.2-5.5,4.9-9.7,10.3-9.4C22.3,16,26.4,20.1,26.7,25.2z"/>
		<path class="st0" d="M42.3,24.8H27.1c1.4-4.2,5.9-6.5,10.1-5.1C39.6,20.5,41.5,22.4,42.3,24.8z"/>
		<path class="st1" d="M61.7,26.3v2.1c0,0.5-0.4,0.9-0.9,1l-16.2,1.8c-0.4,0-0.7,0.3-0.8,0.7L38,50.6c-0.2,0.4-0.6,0.7-1,0.7H12.5
			c-0.5,0-0.9-0.3-1-0.7l-7.4-24c-0.2-0.5,0.1-1.1,0.7-1.2c0.1,0,0.2-0.1,0.3,0h55.6C61.2,25.3,61.7,25.8,61.7,26.3z"/>
		<path class="st2" d="M11.4,20.1c1.4-1.5,3.3-2.3,5.3-2.3"/>
	</g>
	<line class="st3" x1="13.4" y1="46.2" x2="21.4" y2="46.2"/>
	<line class="st3" x1="12.4" y1="42.2" x2="20.4" y2="42.2"/>
	<line class="st3" x1="11.4" y1="38.2" x2="19.4" y2="38.2"/>
</g>
</svg>
