<svg width="14" height="14" viewBox="0 0 14 14" fill="none" xmlns="http://www.w3.org/2000/svg">
<path d="M5.26156 1.61055C5.26264 1.36639 5.0656 1.16758 4.82146 1.16651H4.52754C4.27846 1.1654 4.07763 1.37021 4.08363 1.61924V2.76487C4.08354 2.7686 4.0835 2.77236 4.0835 2.77614L4.0835 7.26228C4.0835 7.50644 4.28142 7.70436 4.52557 7.70436H8.61696L7.82874 8.44882C7.64765 8.61985 7.64354 8.90666 7.81967 9.08281L8.01903 9.28217C8.19166 9.4548 8.47159 9.4548 8.64422 9.28215L10.4988 7.42753C10.6715 7.25488 10.6715 6.97499 10.4988 6.80234L8.64422 4.9477C8.47157 4.77505 8.19166 4.77505 8.01903 4.9477L7.81967 5.14705C7.64354 5.32319 7.64763 5.61 7.82874 5.78105L8.61696 6.52549H5.26237L5.26237 3.07086C5.26237 3.0619 5.2621 3.05296 5.26156 3.04407V1.61055Z" fill="#2980B9"/>
</svg>
