<?xml version="1.0" encoding="utf-8"?>
<!-- Generator: Adobe Illustrator 22.1.0, SVG Export Plug-In . SVG Version: 6.00 Build 0)  -->
<svg version="1.1" id="Layer_1" xmlns="http://www.w3.org/2000/svg" xmlns:xlink="http://www.w3.org/1999/xlink" x="0px" y="0px"
	 width="64" height="64"
	 viewBox="0 0 64 64" style="enable-background:new 0 0 64 64;" xml:space="preserve">
<style type="text/css">
	.st0{fill:none;stroke:#0067C5;stroke-width:2;stroke-linecap:round;stroke-miterlimit:10;}
	.st1{fill:#96C3E5;}
	.st2{fill:#0067C5;}
	.st3{fill:#96C3E5;enable-background:new    ;}
</style>
<title>molecule</title>
<g id="V2">
	<g id="V2-2">
		<line class="st0" x1="32.6" y1="38.8" x2="25" y2="46.4"/>
		<line class="st0" x1="25" y1="25.9" x2="30.2" y2="28"/>
		<line class="st0" x1="44.5" y1="12.6" x2="44.5" y2="17.6"/>
		<path class="st1" d="M30,51.8c0,5.9-4.8,10.6-10.6,10.6c-5.9,0-10.6-4.8-10.6-10.6s4.8-10.6,10.6-10.6l0,0l0,0
			C25.2,41.1,30,45.9,30,51.8C30,51.7,30,51.7,30,51.8L30,51.8z"/>
		<path class="st2" d="M25.8,22c0,5.9-4.7,10.6-10.6,10.6c0,0,0,0,0,0l0,0C9.3,32.6,4.6,27.9,4.6,22c0-5.9,4.7-10.6,10.6-10.6
			C21,11.4,25.7,16.2,25.8,22z"/>
		<circle class="st3" cx="44.5" cy="7.6" r="5"/>
		<path class="st1" d="M59.5,32.6c0,8.3-6.7,15-15,15s-15-6.7-15-15s6.7-15,15-15H45C53.1,17.9,59.5,24.5,59.5,32.6z"/>
	</g>
</g>
</svg>
