<?xml version="1.0" encoding="UTF-8"?>
<svg width="275px" height="311px" viewBox="0 0 275 311" version="1.1" xmlns="http://www.w3.org/2000/svg" xmlns:xlink="http://www.w3.org/1999/xlink">
    <title>Group 51</title>
    <defs>
        <path d="M4.28363636,1.86242424 C0.112727273,4.52545455 -1.10666667,10.0587879 1.5569697,14.2284848 L1.5569697,14.2284848 C4.2169697,18.3939394 9.75333333,19.6181818 13.9230303,16.9551515 L13.9230303,16.9551515 C18.0927273,14.2915152 19.309697,8.75393939 16.649697,4.58909091 L16.649697,4.58909091 C14.9406061,1.91272727 12.050303,0.451515152 9.0969697,0.452121024 L9.0969697,0.452121024 C7.44727273,0.452121024 5.77757576,0.907878788 4.28363636,1.86242424 L4.28363636,1.86242424 Z" id="path-1"></path>
        <path d="M6.40666667,2.15575758 C0.393333333,5.99575758 -1.36545455,13.9751515 2.47454545,19.9872727 L2.47454545,19.9872727 C6.31151515,25.9945455 14.2939394,27.76 20.3066667,23.9193939 L20.3066667,23.9193939 C26.32,20.0793939 28.0745455,12.0945455 24.2381818,6.08727273 L24.2381818,6.08727273 C21.7739394,2.22909091 17.6066667,0.122424242 13.3472727,0.122424242 L13.3472727,0.122424242 C10.9690909,0.122424242 8.56121212,0.78 6.40666667,2.15575758 L6.40666667,2.15575758 Z" id="path-3"></path>
        <path d="M4.49333333,1.50909091 C0.542424242,4.03272727 -0.613333333,9.27515152 1.90969697,13.2266667 L1.90969697,13.2266667 C4.43151515,17.1733333 9.67636364,18.3333333 13.6278788,15.809697 L13.6278788,15.809697 C17.5787879,13.2866667 18.7321212,8.03878788 16.2109091,4.09212121 L16.2109091,4.09212121 C14.5915152,1.5569697 11.8533333,0.172121212 9.05454545,0.172727074 L9.05454545,0.172727074 C7.49151515,0.172727074 5.90969697,0.604242424 4.49333333,1.50909091 L4.49333333,1.50909091 Z" id="path-5"></path>
        <path d="M8.85090909,3.06969697 C0.482424242,8.41454545 -1.96545455,19.5187879 3.37939394,27.8872727 L3.37939394,27.8872727 C8.71878788,36.2472727 19.8284848,38.7036364 28.1969697,33.3587879 L28.1969697,33.3587879 C36.5654545,28.0139394 39.0078788,16.9012121 33.6684848,8.54121212 L33.6684848,8.54121212 C30.2393939,3.17151515 24.4387879,0.239393939 18.5109091,0.239393939 L18.5109091,0.239393939 C15.2006061,0.239393939 11.849697,1.15454545 8.85090909,3.06969697 L8.85090909,3.06969697 Z" id="path-7"></path>
    </defs>
    <g id="Page-1" stroke="none" stroke-width="1" fill="none" fill-rule="evenodd">
        <g id="General---Collapsed" transform="translate(-1014.000000, -158.000000)">
            <g id="Group-51" transform="translate(1019.000000, 164.000000)">
                <g id="Group-5" transform="translate(0.000000, 138.990303)">
                    <path d="M152.414848,55.4055758 L77.5663636,146.607394 C63.8863636,162.882545 39.6469697,165.255273 23.9542424,151.838909 L14.200303,143.916485 C-2.07424242,130.236485 -4.44757576,105.997697 8.96878788,90.3049697 L82.9663636,0.140727273" id="Stroke-1" stroke="#B82025" stroke-width="10.2333333" stroke-linecap="round"></path>
                    <path d="M189.131818,37.0136364 C193.301515,34.35 198.834848,35.57 201.497879,39.740303 C204.158485,43.9057576 202.941515,49.4433333 198.771212,52.1063636 C194.601515,54.77 189.065758,53.5451515 186.405152,49.379697 C183.741515,45.21 184.961515,39.6772727 189.131818,37.0136364" id="Fill-3" fill="#D89398"></path>
                </g>
                <g id="Group-8" transform="translate(184.848485, 174.141818)">
                    <mask id="mask-2" fill="white">
                        <use xlink:href="#path-1"></use>
                    </mask>
                    <g id="Clip-7"></g>
                    <polygon id="Fill-6" fill="#D89398" mask="url(#mask-2)" points="-38.5954545 -1.10781818 19.619697 -38.2902424 56.8015152 19.9249091 -1.4130303 57.1073333"></polygon>
                </g>
                <path d="M153.07297,150.843576 C159.086303,147.00297 167.064485,148.761758 170.905091,154.774485 C174.741455,160.781152 172.986303,168.766 166.973576,172.606606 C160.960848,176.447212 152.978424,174.681758 149.141455,168.675091 C145.301455,162.662364 147.060242,154.683576 153.07297,150.843576" id="Fill-9" fill="#D89398"></path>
                <g id="Group-13" transform="translate(146.666667, 148.687273)">
                    <mask id="mask-4" fill="white">
                        <use xlink:href="#path-3"></use>
                    </mask>
                    <g id="Clip-12"></g>
                    <polygon id="Fill-11" fill="#D89398" mask="url(#mask-4)" points="-55.423697 -2.1269697 28.5211515 -55.7427273 82.1369091 28.2021212 -1.80793939 81.8184848"></polygon>
                </g>
                <path d="M222.069212,256.256667 C226.020727,253.73303 231.263152,254.888788 233.786788,258.840303 C236.308,262.78697 235.154667,268.034242 231.203152,270.557879 C227.252242,273.081515 222.006788,271.921515 219.485576,267.974242 C216.961939,264.022727 218.117697,258.780303 222.069212,256.256667" id="Fill-14" fill="#D89398"></path>
                <g id="Group-18" transform="translate(217.575758, 254.747879)">
                    <mask id="mask-6" fill="white">
                        <use xlink:href="#path-5"></use>
                    </mask>
                    <g id="Clip-17"></g>
                    <polygon id="Fill-16" fill="#D89398" mask="url(#mask-6)" points="-36.136303 -1.30545455 19.0255152 -36.5375758 54.2570303 18.6242424 -0.904181818 53.8563636"></polygon>
                </g>
                <path d="M173.093697,222.059818 C181.462182,216.71497 192.566424,219.163455 197.911273,227.531333 C203.250667,235.891333 200.808242,247.004061 192.439758,252.349515 C184.070667,257.694364 172.96097,255.237394 167.622182,246.877394 C162.276727,238.509515 164.724606,227.404667 173.093697,222.059818" id="Fill-19" fill="#D89398"></path>
                <g id="Group-23" transform="translate(164.242424, 218.990303)">
                    <mask id="mask-8" fill="white">
                        <use xlink:href="#path-7"></use>
                    </mask>
                    <g id="Clip-22"></g>
                    <polygon id="Fill-21" fill="#D89398" mask="url(#mask-8)" points="-77.2010303 -2.8910303 39.6292727 -77.5104242 114.249273 39.3192727 -2.5810303 113.939879"></polygon>
                </g>
                <g id="Group-50" transform="translate(27.060606, 0.202424)">
                    <g id="Group-27" transform="translate(14.151515, 176.363636)">
                        <path d="M30.8002424,74.1330909 L75.9426667,20.7288485 C79.2844848,16.6476364 80.8905455,11.7476364 80.4887273,6.6070303 C80.6650909,1.73975758 75.4602424,-0.718424242 71.7814545,1.0809697 C63.8450909,4.40642424 55.266303,4.59975758 47.4747879,1.62763636 C45.1608485,0.534909091 42.606303,1.45127273 40.3578182,3.21854545 L0.351757576,51.1033939" id="Fill-24" fill="#D89398"></path>
                        <path d="M30.8002424,74.1330909 L75.9426667,20.7288485 C79.2844848,16.6476364 80.8905455,11.7476364 80.4887273,6.6070303 C80.6650909,1.73975758 75.4602424,-0.718424242 71.7814545,1.0809697 C63.8450909,4.40642424 55.266303,4.59975758 47.4747879,1.62763636 C45.1608485,0.534909091 42.606303,1.45127273 40.3578182,3.21854545 L0.351757576,51.1033939" id="Stroke-26" stroke="#D89398" stroke-width="10.2333333" stroke-linecap="round"></path>
                    </g>
                    <g id="Group-31" transform="translate(0.000000, 226.272727)">
                        <path d="M15.5031515,0.19430303 L5.08193939,12.6676364 C-1.05442424,19.6724848 -1.68109091,29.9864242 3.92557576,37.5846061 C11.3001212,47.4324848 26.1764848,47.384 33.4055758,38.0664242 L45.9516364,23.224" id="Fill-28" fill="#D89398"></path>
                        <path d="M15.5031515,0.19430303 L5.08193939,12.6676364 C-1.05442424,19.6724848 -1.68109091,29.9864242 3.92557576,37.5846061 C11.3001212,47.4324848 26.1764848,47.384 33.4055758,38.0664242 L45.9516364,23.224" id="Stroke-30" stroke="#D89398" stroke-width="10.2333333" stroke-linecap="round"></path>
                    </g>
                    <polyline id="Stroke-32" stroke="#B82025" stroke-width="10.2333333" stroke-linecap="round" points="72.5961818 78.1855152 83.1452727 7.23339394 170.924061 20.2885455 158.180424 106.001879"></polyline>
                    <line x1="55.4388485" y1="0.0658181818" x2="194.901273" y2="21.0088485" id="Stroke-34" stroke="#B82025" stroke-width="10.2333333" stroke-linecap="round"></line>
                    <line x1="72.9116364" y1="78.3175152" x2="97.9043636" y2="65.4272121" id="Stroke-36" stroke="#B82025" stroke-width="10.2333333" stroke-linecap="round"></line>
                    <line x1="157.922848" y1="105.970242" x2="97.9046667" y2="65.4272121" id="Stroke-38" stroke="#B82025" stroke-width="10.2333333" stroke-linecap="round"></line>
                    <line x1="125.755515" y1="193.835394" x2="92.8161212" y2="195.851758" id="Stroke-40" stroke="#B82025" stroke-width="10.2333333" stroke-linecap="round"></line>
                    <line x1="56.3515152" y1="138.827697" x2="92.8163636" y2="195.851939" id="Stroke-42" stroke="#B82025" stroke-width="10.2333333" stroke-linecap="round"></line>
                    <line x1="236.224242" y1="155.421576" x2="188.416364" y2="143.008848" id="Stroke-44" stroke="#B82025" stroke-width="10.2333333" stroke-linecap="round"></line>
                    <line x1="236.224242" y1="155.421576" x2="222.98303" y2="183.514909" id="Stroke-46" stroke="#B82025" stroke-width="10.2333333" stroke-linecap="round"></line>
                    <line x1="222.983273" y1="183.515212" x2="188.416606" y2="143.008545" id="Stroke-48" stroke="#B82025" stroke-width="10.2333333" stroke-linecap="round"></line>
                </g>
            </g>
        </g>
    </g>
</svg>