<?xml version="1.0" encoding="UTF-8"?>
<svg width="286px" height="299px" viewBox="0 0 286 299" version="1.1" xmlns="http://www.w3.org/2000/svg" xmlns:xlink="http://www.w3.org/1999/xlink">
    <title>Group 37</title>
    <g id="Page-1" stroke="none" stroke-width="1" fill="none" fill-rule="evenodd">
        <g id="Unresponsive-Back---Version-2" transform="translate(-1003.000000, -147.000000)">
            <g id="Group-37" transform="translate(1008.000000, 152.000000)">
                <g id="Group-36" transform="translate(0.000000, 0.257040)">
                    <path d="M271.628208,267.04296 L95.250168,267.04296 C92.839068,267.04296 90.866448,265.07034 90.866448,262.65924 L90.866448,197.58276 C90.866448,152.67744 127.607508,115.93692 172.512288,115.93692 L194.366088,115.93692 C239.271408,115.93692 276.011928,152.67744 276.011928,197.58276 L276.011928,262.65924 C276.011928,265.07034 274.039308,267.04296 271.628208,267.04296 Z" id="Stroke-2" stroke="#D89398" stroke-width="8.64" fill="#FFFFFF"></path>
                    <line x1="245.473038" y1="191.98296" x2="216.853038" y2="191.98296" id="Stroke-4" stroke="#D89398" stroke-width="8.64" stroke-linecap="round" stroke-linejoin="round"></line>
                    <g id="Group-9" transform="translate(0.000000, 137.160000)">
                        <path d="M100.118106,0.482814 L111.068766,0.482814 C112.007286,0.482814 112.633146,1.108134 112.633146,2.046654 L112.633146,149.095674 C112.633146,150.034194 112.007286,150.659514 111.068766,150.659514 L1.564326,150.659514 C0.625806,150.659514 -5.4e-05,150.034194 -5.4e-05,149.095674 L-5.4e-05,2.046654 C-5.4e-05,1.108134 0.625806,0.482814 1.564326,0.482814 L12.514446,0.482814" id="Fill-6" fill="#D89398"></path>
                        <path d="M100.118106,0.482814 L111.068766,0.482814 C112.007286,0.482814 112.633146,1.108134 112.633146,2.046654 L112.633146,149.095674 C112.633146,150.034194 112.007286,150.659514 111.068766,150.659514 L1.564326,150.659514 C0.625806,150.659514 -5.4e-05,150.034194 -5.4e-05,149.095674 L-5.4e-05,2.046654 C-5.4e-05,1.108134 0.625806,0.482814 1.564326,0.482814 L12.514446,0.482814" id="Stroke-8" stroke="#B82025" stroke-width="8.64" stroke-linecap="round"></path>
                    </g>
                    <path d="M87.603714,128.883096 L74.150154,128.883096 C71.647254,121.687056 64.763874,116.368056 56.316654,116.368056 C47.868894,116.368056 41.298714,121.687056 38.482614,128.883096 L25.029594,128.883096 C18.146214,128.883096 12.514554,134.514756 12.514554,141.397596 C12.514554,148.280976 18.146214,153.912636 25.029594,153.912636 L87.603714,153.912636 C94.486554,153.912636 100.118214,148.280976 100.118214,141.397596 C100.118214,134.514756 94.486554,128.883096 87.603714,128.883096" id="Fill-10" fill="#FFFFFF"></path>
                    <path d="M87.603714,128.883096 L74.150154,128.883096 C71.647254,121.687056 64.763874,116.368056 56.316654,116.368056 C47.868894,116.368056 41.298714,121.687056 38.482614,128.883096 L25.029594,128.883096 C18.146214,128.883096 12.514554,134.514756 12.514554,141.397596 C12.514554,148.280976 18.146214,153.912636 25.029594,153.912636 L87.603714,153.912636 C94.486554,153.912636 100.118214,148.280976 100.118214,141.397596 C100.118214,134.514756 94.486554,128.883096 87.603714,128.883096 Z" id="Stroke-12" stroke="#B82025" stroke-width="8.64" stroke-linecap="round"></path>
                    <line x1="43.801506" y1="178.315776" x2="96.989346" y2="178.315776" id="Stroke-14" stroke="#B82025" stroke-width="8.64" stroke-linecap="round"></line>
                    <line x1="12.514716" y1="178.315776" x2="31.287276" y2="197.087796" id="Stroke-16" stroke="#B82025" stroke-width="8.64" stroke-linecap="round"></line>
                    <line x1="31.287114" y1="178.315776" x2="12.514554" y2="197.087796" id="Stroke-18" stroke="#B82025" stroke-width="8.64" stroke-linecap="round"></line>
                    <line x1="45.29601" y1="216.04563" x2="98.48385" y2="216.04563" id="Stroke-20" stroke="#B82025" stroke-width="8.64" stroke-linecap="round"></line>
                    <line x1="14.00922" y1="216.04563" x2="32.78124" y2="234.81819" id="Stroke-22" stroke="#B82025" stroke-width="8.64" stroke-linecap="round"></line>
                    <line x1="32.781078" y1="216.04563" x2="14.009058" y2="234.81819" id="Stroke-24" stroke="#B82025" stroke-width="8.64" stroke-linecap="round"></line>
                    <line x1="45.29601" y1="253.776024" x2="98.48385" y2="253.776024" id="Stroke-26" stroke="#B82025" stroke-width="8.64" stroke-linecap="round"></line>
                    <line x1="14.00922" y1="253.776024" x2="32.78124" y2="272.548584" id="Stroke-28" stroke="#B82025" stroke-width="8.64" stroke-linecap="round"></line>
                    <line x1="32.781078" y1="253.776024" x2="14.009058" y2="272.548584" id="Stroke-30" stroke="#B82025" stroke-width="8.64" stroke-linecap="round"></line>
                    <path d="M253.033038,68.72796 C253.033038,106.52904 222.389118,137.17296 184.588038,137.17296 C146.786958,137.17296 116.143038,106.52904 116.143038,68.72796 C116.143038,30.92688 146.786958,0.28296 184.588038,0.28296 C222.389118,0.28296 253.033038,30.92688 253.033038,68.72796" id="Fill-32" fill="#FFFDFD"></path>
                    <path d="M253.033038,68.72796 C253.033038,106.52904 222.389118,137.17296 184.588038,137.17296 C146.786958,137.17296 116.143038,106.52904 116.143038,68.72796 C116.143038,30.92688 146.786958,0.28296 184.588038,0.28296 C222.389118,0.28296 253.033038,30.92688 253.033038,68.72796 Z" id="Stroke-34" stroke="#D89398" stroke-width="8.64"></path>
                </g>
                <line x1="184.723038" y1="137.43" x2="184.723038" y2="264.87" id="Stroke-1" stroke="#D89398" stroke-width="8.64"></line>
            </g>
        </g>
    </g>
</svg>