<svg width="64" height="64" viewBox="0 0 64 64" fill="none" xmlns="http://www.w3.org/2000/svg">
<path d="M31.0003 55C30.3703 55 29.7203 55 29.0903 54.92C16.9187 54.0008 7.58501 43.7335 7.82686 31.5296C8.06871 19.3257 17.8018 9.43624 30.0003 9V32.39L46.5403 49C42.2957 52.8774 36.7493 55.0188 31.0003 55Z" fill="#D3D3D3"/>
<path fill-rule="evenodd" clip-rule="evenodd" d="M6.97016 31.4797C7.23494 18.7967 17.3243 8.51013 29.9998 8C30.5521 8 30.9998 8.44772 30.9998 9V32L47.2298 48.22C47.4254 48.4085 47.5358 48.6684 47.5358 48.94C47.5358 49.2116 47.4254 49.4715 47.2298 49.66C42.8021 53.7247 37.0103 55.98 30.9998 55.98C30.6648 55.98 30.3323 55.96 29.9998 55.94C29.6673 55.92 29.3348 55.9 28.9998 55.9C16.3567 54.8613 6.70538 44.1626 6.97016 31.4797ZM29.0003 32.8301V10.0901C23.4788 10.5721 18.3496 13.1438 14.6603 17.2801C9.06523 23.4897 7.47229 32.3335 10.5491 40.105C13.6259 47.8766 20.8409 53.2333 29.1703 53.9301C29.7803 54.0001 30.3903 54.0001 31.0003 54.0001C36.1456 53.9989 41.1278 52.1943 45.0803 48.9001L29.5903 33.4101L29.0003 32.8301Z" fill="#D3D3D3"/>
<path d="M36.4102 32L52.0002 16.46C60.0587 25.2529 60.0587 38.7471 52.0002 47.54L36.4102 32Z" fill="#808080"/>
<path fill-rule="evenodd" clip-rule="evenodd" d="M51.9999 15.46C51.996 15.46 51.9921 15.46 51.9883 15.46H51.9999ZM51.9748 15.4601C51.9698 15.4601 51.9648 15.46 51.9599 15.46H51.9883C51.9838 15.46 51.9793 15.4601 51.9748 15.4601ZM51.9748 15.4601C52.2416 15.4651 52.4955 15.5766 52.6799 15.77C61.1063 24.9494 61.1063 39.0506 52.6799 48.23C52.4921 48.427 52.232 48.5389 51.9599 48.54C51.6941 48.5415 51.4386 48.4372 51.2499 48.25L35.7099 32.71C35.5205 32.5222 35.4141 32.2666 35.4141 32C35.4141 31.7333 35.5205 31.4777 35.7099 31.29L51.2899 15.75C51.4726 15.5687 51.7181 15.4651 51.9748 15.4601ZM37.8299 32L51.8999 46.08C58.6942 37.9228 58.6942 26.0772 51.8999 17.92L37.8299 32Z" fill="#808080"/>
</svg>
