<svg width="64" height="64" viewBox="0 0 64 64" fill="none" xmlns="http://www.w3.org/2000/svg">
<rect x="5.64453" y="16.3218" width="8.71015" height="8.70974" rx="4.35487" fill="#808080" stroke="#808080" stroke-width="1.74199" stroke-linecap="round"/>
<rect x="16.6445" y="16.3203" width="8.71015" height="8.70974" rx="4.35487" fill="#808080" stroke="#808080" stroke-width="1.74199" stroke-linecap="round"/>
<rect x="27.6445" y="16.3203" width="8.71015" height="8.70974" rx="4.35487" fill="#808080" stroke="#808080" stroke-width="1.74199" stroke-linecap="round"/>
<rect x="38.6445" y="16.3223" width="8.71015" height="8.70974" rx="4.35487" fill="#808080" stroke="#808080" stroke-width="1.74199" stroke-linecap="round"/>
<rect x="49.6445" y="16.3223" width="8.71015" height="8.70974" rx="4.35487" fill="#808080" stroke="#808080" stroke-width="1.74199" stroke-linecap="round"/>
<rect x="5.64453" y="27.6455" width="8.71015" height="8.70974" rx="4.35487" fill="#D3D3D3" stroke="#D3D3D3" stroke-width="1.74199" stroke-linecap="round"/>
<rect x="16.6445" y="27.646" width="8.71015" height="8.70974" rx="4.35487" fill="#D3D3D3" stroke="#D3D3D3" stroke-width="1.74199" stroke-linecap="round"/>
<rect x="27.6445" y="27.646" width="8.71015" height="8.70974" rx="4.35487" fill="#D3D3D3" stroke="#D3D3D3" stroke-width="1.74199" stroke-linecap="round"/>
<rect x="38.6445" y="27.6455" width="8.71015" height="8.70974" rx="4.35487" fill="#D3D3D3" stroke="#D3D3D3" stroke-width="1.74199" stroke-linecap="round"/>
<rect x="49.6445" y="27.6455" width="8.71015" height="8.70974" rx="4.35487" fill="#D3D3D3" stroke="#D3D3D3" stroke-width="1.74199" stroke-linecap="round"/>
<rect x="5.64453" y="38.9678" width="8.71015" height="8.70974" rx="4.35487" fill="#808080" stroke="#808080" stroke-width="1.74199" stroke-linecap="round"/>
<rect x="16.6445" y="38.9673" width="8.71015" height="8.70974" rx="4.35487" fill="#808080" stroke="#808080" stroke-width="1.74199" stroke-linecap="round"/>
<rect x="27.6445" y="38.9673" width="8.71015" height="8.70974" rx="4.35487" fill="#808080" stroke="#808080" stroke-width="1.74199" stroke-linecap="round"/>
<rect x="38.6445" y="38.9678" width="8.71015" height="8.70974" rx="4.35487" fill="#808080" stroke="#808080" stroke-width="1.74199" stroke-linecap="round"/>
<rect x="49.6445" y="38.9678" width="8.71015" height="8.70974" rx="4.35487" fill="#808080" stroke="#808080" stroke-width="1.74199" stroke-linecap="round"/>
<rect x="5.64453" y="50.2896" width="8.71015" height="8.70974" rx="4.35487" fill="#D3D3D3" stroke="#D3D3D3" stroke-width="1.74199" stroke-linecap="round"/>
<rect x="16.6445" y="50.29" width="8.71015" height="8.70974" rx="4.35487" fill="#D3D3D3" stroke="#D3D3D3" stroke-width="1.74199" stroke-linecap="round"/>
<rect x="27.6445" y="50.29" width="8.71015" height="8.70974" rx="4.35487" fill="#D3D3D3" stroke="#D3D3D3" stroke-width="1.74199" stroke-linecap="round"/>
<rect x="38.6445" y="50.2896" width="8.71015" height="8.70974" rx="4.35487" fill="#D3D3D3" stroke="#D3D3D3" stroke-width="1.74199" stroke-linecap="round"/>
<rect x="49.6445" y="50.2896" width="8.71015" height="8.70974" rx="4.35487" fill="#D3D3D3" stroke="#D3D3D3" stroke-width="1.74199" stroke-linecap="round"/>
<rect x="5.64453" y="5" width="8.71015" height="8.70974" rx="4.35487" fill="#D3D3D3" stroke="#D3D3D3" stroke-width="1.74199" stroke-linecap="round"/>
<rect x="16.6445" y="5" width="8.71015" height="8.70974" rx="4.35487" fill="#D3D3D3" stroke="#D3D3D3" stroke-width="1.74199" stroke-linecap="round"/>
<rect x="27.6445" y="5" width="8.71015" height="8.70974" rx="4.35487" fill="#D3D3D3" stroke="#D3D3D3" stroke-width="1.74199" stroke-linecap="round"/>
<rect x="38.6445" y="5" width="8.71015" height="8.70974" rx="4.35487" fill="#D3D3D3" stroke="#D3D3D3" stroke-width="1.74199" stroke-linecap="round"/>
<rect x="49.6445" y="5" width="8.71015" height="8.70974" rx="4.35487" fill="#D3D3D3" stroke="#D3D3D3" stroke-width="1.74199" stroke-linecap="round"/>
</svg>
