<?xml version="1.0" encoding="utf-8"?>
<!-- Generator: Adobe Illustrator 22.1.0, SVG Export Plug-In . SVG Version: 6.00 Build 0)  -->
<svg version="1.1" id="Layer_1" xmlns="http://www.w3.org/2000/svg" xmlns:xlink="http://www.w3.org/1999/xlink" x="0px" y="0px"
	 width="64" height="64"
	 viewBox="0 0 64 64" style="enable-background:new 0 0 64 64;" xml:space="preserve">
<style type="text/css">
	.st0{fill:#D3D3D3;}
	.st1{fill:#808080;}
	.st2{fill:none;stroke:#D3D3D3;stroke-width:1.65;stroke-miterlimit:10;}
	.st3{fill:#D3D3D3;stroke:#D3D3D3;stroke-width:2;stroke-miterlimit:10;}
	.st4{fill:none;stroke:#808080;stroke-width:1.65;stroke-linecap:round;stroke-miterlimit:10;}
	.st5{fill:#808080;stroke:#808080;stroke-width:2;stroke-miterlimit:10;}
</style>
<g id="Alt">
	<g id="Spiral">
		<g id="Crosses">
			<path class="st0" d="M10.2,20.3h13.5c0.1,0,0.2,0.1,0.2,0.2V24c0,0.1-0.1,0.2-0.2,0.2H10.2c-0.1,0-0.2-0.1-0.2-0.2v-3.5
				C10,20.5,10.1,20.3,10.2,20.3z"/>
			<path class="st0" d="M10.2,28.3h13.5c0.1,0,0.2,0.1,0.2,0.2V32c0,0.1-0.1,0.2-0.2,0.2H10.2c-0.1,0-0.2-0.1-0.2-0.2v-3.5
				C10,28.5,10.1,28.3,10.2,28.3z"/>
			<path class="st0" d="M10.2,36.3h13.5c0.1,0,0.2,0.1,0.2,0.2V40c0,0.1-0.1,0.2-0.2,0.2H10.2c-0.1,0-0.2-0.1-0.2-0.2v-3.5
				C10,36.5,10.1,36.3,10.2,36.3z"/>
		</g>
		<g id="Diagonals">
			<polygon class="st1" points="10.5,20.6 23.5,13.2 23.5,16.1 10.5,23.5 			"/>
			<path class="st1" d="M23,14.1v1.7l-12,6.9V21L23,14.1 M23.7,12.5h-0.1l-13.5,7.7c-0.1,0-0.1,0.1-0.1,0.2v3.4
				c0,0.2,0.1,0.3,0.3,0.3h0.1l13.5-7.7c0.1,0,0.1-0.1,0.1-0.2v-3.4C24,12.7,23.9,12.5,23.7,12.5C23.8,12.5,23.8,12.5,23.7,12.5
				L23.7,12.5z"/>
			<polygon class="st1" points="10.5,28.6 23.5,21.2 23.5,24.1 10.5,31.5 			"/>
			<path class="st1" d="M23,22.1v1.7l-12,6.9V29L23,22.1 M23.7,20.5h-0.1l-13.5,7.7c-0.1,0-0.1,0.1-0.1,0.2v3.4
				c0,0.2,0.1,0.3,0.3,0.3h0.1l13.5-7.7c0.1,0,0.1-0.1,0.1-0.2v-3.4C24,20.7,23.9,20.5,23.7,20.5C23.8,20.5,23.8,20.5,23.7,20.5
				L23.7,20.5z"/>
			<polygon class="st1" points="10.5,36.6 23.5,29.2 23.5,32.1 10.5,39.5 			"/>
			<path class="st1" d="M23,30.1v1.7l-12,6.9V37L23,30.1 M23.7,28.5h-0.1l-13.5,7.7c-0.1,0-0.1,0.1-0.1,0.2v3.4
				c0,0.2,0.1,0.3,0.3,0.3h0.1l13.5-7.7c0.1,0,0.1-0.1,0.1-0.2v-3.4C24,28.7,23.9,28.5,23.7,28.5C23.8,28.5,23.8,28.5,23.7,28.5
				L23.7,28.5z"/>
			<polygon class="st1" points="10.5,44.6 23.5,37.2 23.5,40.1 10.5,47.5 			"/>
			<path class="st1" d="M23,38.1v1.7l-12,6.9V45L23,38.1 M23.7,36.5h-0.1l-13.5,7.7c-0.1,0-0.1,0.1-0.1,0.2v3.4
				c0,0.2,0.1,0.3,0.3,0.3h0.1l13.5-7.7c0.1,0,0.1-0.1,0.1-0.2v-3.4C24,36.7,23.9,36.5,23.7,36.5C23.8,36.5,23.8,36.5,23.7,36.5
				L23.7,36.5z"/>
		</g>
	</g>
	<g id="Up">
		<path id="Bottom_Arch" class="st2" d="M48.8,47.2c0,3.9-3.1,7-7,7s-7-3.1-7-7"/>
		<path class="st3" d="M41.2,21.7l7.4-7.4c0.1-0.1,0.3-0.1,0.4,0l7.4,7.4c0.2,0.2,0,0.4-0.2,0.4H51c-0.1,0-0.2,0.1-0.2,0.2v25.5
			c0,0.1-0.1,0.2-0.2,0.2H47c-0.1,0-0.2-0.1-0.2-0.2V22.4c0-0.1-0.1-0.2-0.2-0.2h-5.1C41.1,22.2,41,21.9,41.2,21.7z"/>
	</g>
	<g id="Down">
		<path id="Top_Arch" class="st4" d="M34.8,15.2c0-3.9-3.1-7-7-7s-7,3.1-7,7l0,0l0,0"/>
		<path class="st5" d="M27.2,40.6l7.4,7.4c0.1,0.1,0.3,0.1,0.4,0l7.4-7.4c0.2-0.2,0-0.4-0.2-0.4H37c-0.1,0-0.2-0.1-0.2-0.2V14.4
			c0-0.1-0.1-0.2-0.2-0.2H33c-0.1,0-0.2,0.1-0.2,0.2v25.5c0,0.1-0.1,0.2-0.2,0.2h-5.1C27.1,40.2,27,40.4,27.2,40.6z"/>
	</g>
</g>
</svg>
