<?xml version="1.0" encoding="utf-8"?>
<!-- Generator: Adobe Illustrator 22.1.0, SVG Export Plug-In . SVG Version: 6.00 Build 0)  -->
<svg version="1.1" id="Layer_1" xmlns="http://www.w3.org/2000/svg" xmlns:xlink="http://www.w3.org/1999/xlink" x="0px" y="0px"
	 width="64" height="64"
	 viewBox="0 0 64 64" style="enable-background:new 0 0 64 64;" xml:space="preserve">
<style type="text/css">
	.st0{fill:#FFFFFF;}
	.st1{fill:none;stroke:#FFFFFF;stroke-width:3;stroke-miterlimit:10;}
	.st2{fill:#FFFFFF;stroke:#FFFFFF;stroke-width:2;stroke-miterlimit:10;}
	.st3{fill:none;stroke:#FFFFFF;stroke-width:3;stroke-linecap:round;stroke-miterlimit:10;}
</style>
<g id="Spiral">
	<g id="Crosses">
		<path class="st0" d="M9.2,21.3h13.5c0.1,0,0.2,0.1,0.2,0.2V25c0,0.1-0.1,0.2-0.2,0.2H9.2C9.1,25.2,9,25.1,9,25v-3.5
			C9,21.5,9.1,21.3,9.2,21.3z"/>
		<path class="st0" d="M9.2,29.3h13.5c0.1,0,0.2,0.1,0.2,0.2V33c0,0.1-0.1,0.2-0.2,0.2H9.2C9.1,33.2,9,33.1,9,33v-3.5
			C9,29.5,9.1,29.3,9.2,29.3z"/>
		<path class="st0" d="M9.2,37.3h13.5c0.1,0,0.2,0.1,0.2,0.2V41c0,0.1-0.1,0.2-0.2,0.2H9.2C9.1,41.2,9,41.1,9,41v-3.5
			C9,37.5,9.1,37.3,9.2,37.3z"/>
	</g>
	<g id="Diagonals">
		<polygon class="st0" points="9.5,21.6 22.5,14.2 22.5,17.1 9.5,24.5 		"/>
		<path class="st0" d="M22,15.1v1.7l-12,6.9V22L22,15.1 M22.7,13.5h-0.1L9.1,21.2C9,21.2,9,21.3,9,21.4v3.4c0,0.2,0.1,0.3,0.3,0.3
			h0.1l13.5-7.7c0.1,0,0.1-0.1,0.1-0.2v-3.4C23,13.7,22.9,13.5,22.7,13.5L22.7,13.5z"/>
		<polygon class="st0" points="9.5,29.6 22.5,22.2 22.5,25.1 9.5,32.5 		"/>
		<path class="st0" d="M22,23.1v1.7l-12,6.9V30L22,23.1 M22.7,21.5h-0.1L9.1,29.2C9,29.2,9,29.3,9,29.4v3.4c0,0.2,0.1,0.3,0.3,0.3
			h0.1l13.5-7.7c0.1,0,0.1-0.1,0.1-0.2v-3.4C23,21.7,22.9,21.5,22.7,21.5L22.7,21.5z"/>
		<polygon class="st0" points="9.5,37.6 22.5,30.2 22.5,33.1 9.5,40.5 		"/>
		<path class="st0" d="M22,31.1v1.7l-12,6.9V38L22,31.1 M22.7,29.5h-0.1L9.1,37.2C9,37.2,9,37.3,9,37.4v3.4c0,0.2,0.1,0.3,0.3,0.3
			h0.1l13.5-7.7c0.1,0,0.1-0.1,0.1-0.2v-3.4C23,29.7,22.9,29.5,22.7,29.5L22.7,29.5z"/>
		<polygon class="st0" points="9.5,45.6 22.5,38.2 22.5,41.1 9.5,48.5 		"/>
		<path class="st0" d="M22,39.1v1.7l-12,6.9V46L22,39.1 M22.7,37.5h-0.1L9.1,45.2C9,45.2,9,45.3,9,45.4v3.4c0,0.2,0.1,0.3,0.3,0.3
			h0.1l13.5-7.7c0.1,0,0.1-0.1,0.1-0.2v-3.4C23,37.7,22.9,37.5,22.7,37.5L22.7,37.5z"/>
	</g>
</g>
<g id="Up">
	<path id="Bottom_Arch" class="st1" d="M47.8,48.2c0,3.9-3.1,7-7,7s-7-3.1-7-7"/>
	<path class="st2" d="M40.2,22.7l7.4-7.4c0.1-0.1,0.3-0.1,0.4,0l7.4,7.4c0.2,0.2,0,0.4-0.2,0.4H50c-0.1,0-0.2,0.1-0.2,0.2v25.5
		c0,0.1-0.1,0.2-0.2,0.2H46c-0.1,0-0.2-0.1-0.2-0.2V23.4c0-0.1-0.1-0.2-0.2-0.2h-5.1C40.1,23.2,40,22.9,40.2,22.7z"/>
</g>
<g id="Down">
	<path id="Top_Arch" class="st3" d="M33.8,16.2c0-3.9-3.1-7-7-7s-7,3.1-7,7l0,0"/>
	<path class="st2" d="M26.2,41.6l7.4,7.4c0.1,0.1,0.3,0.1,0.4,0l7.4-7.4c0.2-0.2,0-0.4-0.2-0.4H36c-0.1,0-0.2-0.1-0.2-0.2V15.4
		c0-0.1-0.1-0.2-0.2-0.2H32c-0.1,0-0.2,0.1-0.2,0.2v25.5c0,0.1-0.1,0.2-0.2,0.2h-5.1C26.1,41.2,26,41.4,26.2,41.6z"/>
</g>
</svg>

