<?xml version="1.0" encoding="utf-8"?>
<!-- Generator: Adobe Illustrator 22.1.0, SVG Export Plug-In . SVG Version: 6.00 Build 0)  -->
<svg version="1.1" id="Layer_1" xmlns="http://www.w3.org/2000/svg" xmlns:xlink="http://www.w3.org/1999/xlink" x="0px" y="0px"
	 width="64" height="64"
	 viewBox="0 0 64 64" style="enable-background:new 0 0 64 64;" xml:space="preserve">
<style type="text/css">
	.st0{fill:#96C3E5;}
	.st1{fill:#0067C5;}
	.st2{fill:none;stroke:#96C3E5;stroke-width:1.65;stroke-miterlimit:10;}
	.st3{fill:#96C3E5;stroke:#96C3E5;stroke-width:2;stroke-miterlimit:10;}
	.st4{fill:none;stroke:#0067C5;stroke-width:1.65;stroke-linecap:round;stroke-miterlimit:10;}
	.st5{fill:#0067C5;stroke:#0067C5;stroke-width:2;stroke-miterlimit:10;}
</style>
<g id="Spiral">
	<g id="Crosses">
		<path class="st0" d="M9,21.2h13.5c0.1,0,0.2,0.1,0.2,0.2v3.5c0,0.1-0.1,0.2-0.2,0.2H9c-0.1,0-0.2-0.1-0.2-0.2v-3.5
			C8.8,21.4,8.9,21.2,9,21.2z"/>
		<path class="st0" d="M9,29.2h13.5c0.1,0,0.2,0.1,0.2,0.2v3.5c0,0.1-0.1,0.2-0.2,0.2H9c-0.1,0-0.2-0.1-0.2-0.2v-3.5
			C8.8,29.4,8.9,29.2,9,29.2z"/>
		<path class="st0" d="M9,37.2h13.5c0.1,0,0.2,0.1,0.2,0.2v3.5c0,0.1-0.1,0.2-0.2,0.2H9c-0.1,0-0.2-0.1-0.2-0.2v-3.5
			C8.8,37.4,8.9,37.2,9,37.2z"/>
	</g>
	<g id="Diagonals">
		<polygon class="st1" points="9.3,21.5 22.3,14.1 22.3,17 9.3,24.4 		"/>
		<path class="st1" d="M21.8,15v1.7l-12,6.9v-1.7L21.8,15 M22.5,13.4h-0.1L8.9,21.1c-0.1,0-0.1,0.1-0.1,0.2v3.4
			c0,0.2,0.1,0.3,0.3,0.3h0.1l13.5-7.7c0.1,0,0.1-0.1,0.1-0.2v-3.4C22.8,13.6,22.7,13.4,22.5,13.4L22.5,13.4z"/>
		<polygon class="st1" points="9.3,29.5 22.3,22.1 22.3,25 9.3,32.4 		"/>
		<path class="st1" d="M21.8,23v1.7l-12,6.9v-1.7L21.8,23 M22.5,21.4h-0.1L8.9,29.1c-0.1,0-0.1,0.1-0.1,0.2v3.4
			c0,0.2,0.1,0.3,0.3,0.3h0.1l13.5-7.7c0.1,0,0.1-0.1,0.1-0.2v-3.4C22.8,21.6,22.7,21.4,22.5,21.4L22.5,21.4z"/>
		<polygon class="st1" points="9.3,37.5 22.3,30.1 22.3,33 9.3,40.4 		"/>
		<path class="st1" d="M21.8,31v1.7l-12,6.9v-1.7L21.8,31 M22.5,29.4h-0.1L8.9,37.1c-0.1,0-0.1,0.1-0.1,0.2v3.4
			c0,0.2,0.1,0.3,0.3,0.3h0.1l13.5-7.7c0.1,0,0.1-0.1,0.1-0.2v-3.4C22.8,29.6,22.7,29.4,22.5,29.4L22.5,29.4z"/>
		<polygon class="st1" points="9.3,45.5 22.3,38.1 22.3,41 9.3,48.4 		"/>
		<path class="st1" d="M21.8,39v1.7l-12,6.9v-1.7L21.8,39 M22.5,37.4h-0.1L8.9,45.1c-0.1,0-0.1,0.1-0.1,0.2v3.4
			c0,0.2,0.1,0.3,0.3,0.3h0.1l13.5-7.7c0.1,0,0.1-0.1,0.1-0.2v-3.4C22.8,37.6,22.7,37.4,22.5,37.4L22.5,37.4z"/>
	</g>
</g>
<g id="Up">
	<path id="Bottom_Arch" class="st2" d="M47.6,48.1c0,3.9-3.1,7-7,7s-7-3.1-7-7"/>
	<path class="st3" d="M40,22.6l7.4-7.4c0.1-0.1,0.3-0.1,0.4,0l7.4,7.4c0.2,0.2,0,0.4-0.2,0.4h-5.2c-0.1,0-0.2,0.1-0.2,0.2v25.5
		c0,0.1-0.1,0.2-0.2,0.2h-3.6c-0.1,0-0.2-0.1-0.2-0.2V23.3c0-0.1-0.1-0.2-0.2-0.2h-5.1C39.9,23.1,39.8,22.8,40,22.6z"/>
</g>
<g id="Down">
	<path id="Top_Arch" class="st4" d="M33.6,16.1c0-3.9-3.1-7-7-7s-7,3.1-7,7l0,0"/>
	<path class="st5" d="M26,41.5l7.4,7.4c0.1,0.1,0.3,0.1,0.4,0l7.4-7.4c0.2-0.2,0-0.4-0.2-0.4h-5.2c-0.1,0-0.2-0.1-0.2-0.2V15.3
		c0-0.1-0.1-0.2-0.2-0.2h-3.6c-0.1,0-0.2,0.1-0.2,0.2v25.5c0,0.1-0.1,0.2-0.2,0.2h-5.1C25.9,41.1,25.8,41.3,26,41.5z"/>
</g>
</svg>
