<?xml version="1.0" encoding="utf-8"?>
<!-- Generator: Adobe Illustrator 22.1.0, SVG Export Plug-In . SVG Version: 6.00 Build 0)  -->
<svg version="1.1" id="Layer_1" xmlns="http://www.w3.org/2000/svg" xmlns:xlink="http://www.w3.org/1999/xlink" x="0px" y="0px"
	 width="64" height="64"
	 viewBox="0 0 64 64" style="enable-background:new 0 0 64 64;" xml:space="preserve">
<style type="text/css">
	.st0{fill:none;stroke:#FFFFFF;stroke-width:3;stroke-miterlimit:10;}
	.st1{fill:none;stroke:#FFFFFF;stroke-width:3;stroke-linecap:round;stroke-miterlimit:10;}
	.st2{fill:#FFFFFF;}
	.st3{fill:#FFFFFF;stroke:#FFFFFF;stroke-width:2;stroke-linecap:round;stroke-miterlimit:10;}
</style>
<path class="st0" d="M43.4,13.3L33,51.9c-1.1,4-5.2,6.3-9.1,5.2l-2.4-0.5c-4-1.1-6.3-5.2-5.2-9.1L26.6,8.8L43.4,13.3z"/>
<line class="st1" x1="22.3" y1="6.1" x2="48.9" y2="13.2"/>
<circle class="st2" cx="29.6" cy="22.9" r="1.8"/>
<circle class="st2" cx="35.3" cy="18.9" r="1.8"/>
<path class="st3" d="M30.1,30.1c-1.1,1.2-2.6,2-4.2,2.1c-0.5,0.1-0.9,0.4-1.1,0.9L20.9,48c-0.5,1.8,0.3,3.6,1.9,4.5
	c1.8,0.9,4,0.3,4.9-1.5c0.1-0.3,0.2-0.6,0.3-0.8l4.5-16.9c0.3-1,0.1-2-0.4-2.9c-0.3-0.6-0.9-0.9-1.5-0.6
	C30.4,29.8,30.3,29.9,30.1,30.1z"/>
</svg>
