<?xml version="1.0" encoding="utf-8"?>
<!-- Generator: Adobe Illustrator 23.0.4, SVG Export Plug-In . SVG Version: 6.00 Build 0)  -->
<svg version="1.1" id="Comparison_-_Final" xmlns="http://www.w3.org/2000/svg" xmlns:xlink="http://www.w3.org/1999/xlink" x="0px"
	 y="0px" viewBox="0 0 64 64" style="enable-background:new 0 0 64 64;" xml:space="preserve">
<style type="text/css">
	.st0{fill:#96C3E5;}
	.st1{fill:none;stroke:#96C3E5;stroke-width:2;stroke-miterlimit:10;}
	.st2{fill:#0067C5;}
	.st3{fill:none;stroke:#0067C5;stroke-width:2;stroke-miterlimit:10;}
	.st4{fill:none;stroke:#0067C5;stroke-width:2;stroke-linecap:round;stroke-miterlimit:10;}
</style>
<g>
	<path class="st0" d="M26,49v6c0,0.6-0.4,1-1,1H13c-0.6,0-1-0.4-1-1v-6c0-0.6,0.4-1,1-1h12C25.6,48,26,48.4,26,49z"/>
	<path class="st1" d="M26,49v6c0,0.6-0.4,1-1,1H13c-0.6,0-1-0.4-1-1v-6c0-0.6,0.4-1,1-1h12C25.6,48,26,48.4,26,49z"/>
	<path class="st0" d="M26,35v6c0,0.6-0.4,1-1,1h-6c-0.6,0-1-0.4-1-1v-6c0-0.6,0.4-1,1-1h6C25.6,34,26,34.4,26,35z"/>
	<path class="st1" d="M26,35v6c0,0.6-0.4,1-1,1h-6c-0.6,0-1-0.4-1-1v-6c0-0.6,0.4-1,1-1h6C25.6,34,26,34.4,26,35z"/>
	<path class="st0" d="M26,21v6c0,0.6-0.4,1-1,1H5c-0.6,0-1-0.4-1-1v-6c0-0.6,0.4-1,1-1h20C25.6,20,26,20.4,26,21z"/>
	<path class="st1" d="M26,21v6c0,0.6-0.4,1-1,1H5c-0.6,0-1-0.4-1-1v-6c0-0.6,0.4-1,1-1h20C25.6,20,26,20.4,26,21z"/>
	<path class="st0" d="M26,7v6c0,0.6-0.4,1-1,1H13c-0.6,0-1-0.4-1-1V7c0-0.6,0.4-1,1-1h12C25.6,6,26,6.4,26,7z"/>
	<path class="st1" d="M26,7v6c0,0.6-0.4,1-1,1H13c-0.6,0-1-0.4-1-1V7c0-0.6,0.4-1,1-1h12C25.6,6,26,6.4,26,7z"/>
	<path class="st2" d="M38,13V7c0-0.6,0.4-1,1-1h12c0.6,0,1,0.4,1,1v6c0,0.6-0.4,1-1,1H39C38.4,14,38,13.6,38,13z"/>
	<path class="st3" d="M38,13V7c0-0.6,0.4-1,1-1h12c0.6,0,1,0.4,1,1v6c0,0.6-0.4,1-1,1H39C38.4,14,38,13.6,38,13z"/>
	<path class="st2" d="M38,27v-6c0-0.6,0.4-1,1-1h6c0.6,0,1,0.4,1,1v6c0,0.6-0.4,1-1,1h-6C38.4,28,38,27.6,38,27z"/>
	<path class="st3" d="M38,27v-6c0-0.6,0.4-1,1-1h6c0.6,0,1,0.4,1,1v6c0,0.6-0.4,1-1,1h-6C38.4,28,38,27.6,38,27z"/>
	<path class="st2" d="M38,41v-6c0-0.6,0.4-1,1-1h20c0.6,0,1,0.4,1,1v6c0,0.6-0.4,1-1,1H39C38.4,42,38,41.6,38,41z"/>
	<path class="st3" d="M38,41v-6c0-0.6,0.4-1,1-1h20c0.6,0,1,0.4,1,1v6c0,0.6-0.4,1-1,1H39C38.4,42,38,41.6,38,41z"/>
	<path class="st2" d="M38,55v-6c0-0.6,0.4-1,1-1h12c0.6,0,1,0.4,1,1v6c0,0.6-0.4,1-1,1H39C38.4,56,38,55.6,38,55z"/>
	<path class="st3" d="M38,55v-6c0-0.6,0.4-1,1-1h12c0.6,0,1,0.4,1,1v6c0,0.6-0.4,1-1,1H39C38.4,56,38,55.6,38,55z"/>
	<line class="st4" x1="32" y1="4" x2="32" y2="58"/>
</g>
</svg>
