<svg width="64" height="64" viewBox="0 0 64 64" fill="none" xmlns="http://www.w3.org/2000/svg">
<path fill-rule="evenodd" clip-rule="evenodd" d="M4.49957 20.7374H18.2379C18.4877 20.7374 18.7374 20.4877 18.7374 20.2379V6.49957C18.7374 6.24979 18.4877 6 18.2379 6H4.49957C4.24729 6 4 6.24979 4 6.49957V20.2379C4 20.4877 4.24729 20.7374 4.49957 20.7374Z" fill="white" stroke="white" stroke-width="1.96499" stroke-linecap="round"/>
<path fill-rule="evenodd" clip-rule="evenodd" d="M25.1324 39.4049H38.8707C39.1205 39.4049 39.3703 39.1551 39.3703 38.9053V25.1671C39.3703 24.9173 39.1205 24.6675 38.8707 24.6675H25.1324C24.8801 24.6675 24.6328 24.9173 24.6328 25.1671V38.9053C24.6328 39.1551 24.8801 39.4049 25.1324 39.4049Z" fill="white" stroke="white" stroke-width="1.96499" stroke-linecap="round"/>
<path fill-rule="evenodd" clip-rule="evenodd" d="M45.8922 57.8898H59.6304C59.8802 57.8898 60.13 57.64 60.13 57.3902V43.6519C60.13 43.4021 59.8802 43.1523 59.6304 43.1523H45.8922C45.6399 43.1523 45.3926 43.4021 45.3926 43.6519V57.3902C45.3926 57.64 45.6399 57.8898 45.8922 57.8898Z" fill="white" stroke="white" stroke-width="1.96499" stroke-linecap="round"/>
<path d="M11.3027 20.6094V31.5664H19.8248" stroke="white" stroke-width="1.96499" stroke-linejoin="round"/>
<path d="M31.5098 40.3877V51.3447H40.0319" stroke="white" stroke-width="1.96499" stroke-linejoin="round"/>
<path d="M24.6973 31.5662L18.3057 35.2564L18.3057 27.876L24.6973 31.5662Z" fill="white"/>
<path d="M44.9043 51.3441L38.5127 55.0342L38.5127 47.6539L44.9043 51.3441Z" fill="white"/>
<path d="M9.76881 17.4164L6.22978 13.8774C6.01716 13.6647 6.01716 13.32 6.22978 13.1074L6.99975 12.3374C7.21237 12.1247 7.55713 12.1247 7.76975 12.3374L10.1538 14.7214L15.2602 9.61503C15.4728 9.40241 15.8176 9.40241 16.0302 9.61503L16.8002 10.385C17.0128 10.5976 17.0128 10.9424 16.8002 11.155L10.5388 17.4164C10.3262 17.629 9.98143 17.629 9.76881 17.4164V17.4164Z" fill="white"/>
<path d="M27.9799 31.3527L27.9799 31.3527C28.0007 31.3319 28.0344 31.3319 28.0552 31.3527L28.0552 31.3527L30.4393 33.7367L30.7866 34.0841L31.134 33.7367L36.2404 28.6304L35.893 28.283L36.2404 28.6304C36.2612 28.6096 36.2949 28.6096 36.3157 28.6304L37.0856 29.4004L37.433 29.053L37.0856 29.4004C37.1064 29.4211 37.1064 29.4548 37.0856 29.4756L30.8243 35.737C30.8243 35.737 30.8243 35.737 30.8243 35.737C30.8034 35.7578 30.7698 35.7578 30.749 35.737L30.4016 36.0844L30.749 35.737L27.21 32.198C27.1892 32.1772 27.1892 32.1435 27.21 32.1227C27.21 32.1227 27.21 32.1227 27.21 32.1227L27.9799 31.3527Z" fill="white" stroke="white" stroke-width="0.982496"/>
</svg>
