<?xml version="1.0" encoding="utf-8"?>
<!-- Generator: Adobe Illustrator 23.0.4, SVG Export Plug-In . SVG Version: 6.00 Build 0)  -->
<svg version="1.1" id="Scatter_-_Final" xmlns="http://www.w3.org/2000/svg" xmlns:xlink="http://www.w3.org/1999/xlink" x="0px"
	 y="0px" viewBox="0 0 64 64" style="enable-background:new 0 0 64 64;" xml:space="preserve">
<style type="text/css">
	.st0{fill:#96C3E5;}
	.st1{fill:none;stroke:#96C3E5;stroke-width:2;stroke-linecap:round;stroke-miterlimit:10;}
	.st2{fill:none;stroke:#0067C5;stroke-width:2;stroke-linecap:round;stroke-miterlimit:10;}
	.st3{fill:#FFFFFF;}
	.st4{fill:none;stroke:#FFFFFF;stroke-width:2;stroke-linecap:round;stroke-miterlimit:10;}
</style>
<g>
	<path class="st0" d="M7,6h50c0.6,0,1,0.4,1,1v50c0,0.6-0.4,1-1,1H7c-0.6,0-1-0.4-1-1V7C6,6.4,6.4,6,7,6z"/>
	<path class="st1" d="M7,6h50c0.6,0,1,0.4,1,1v50c0,0.6-0.4,1-1,1H7c-0.6,0-1-0.4-1-1V7C6,6.4,6.4,6,7,6z"/>
	<path class="st2" d="M58,58H7c-0.6,0-1-0.4-1-1V6"/>
	<circle class="st3" cx="14.2" cy="49.2" r="3"/>
	<circle class="st4" cx="14.2" cy="49.2" r="3"/>
	<circle class="st3" cx="23" cy="45" r="1"/>
	<circle class="st4" cx="23" cy="45" r="1"/>
	<circle class="st3" cx="34" cy="36" r="2"/>
	<circle class="st4" cx="34" cy="36" r="2"/>
	<circle class="st3" cx="36" cy="28" r="2"/>
	<circle class="st4" cx="36" cy="28" r="2"/>
	<circle class="st3" cx="50" cy="16" r="4"/>
	<circle class="st4" cx="50" cy="16" r="4"/>
	<circle class="st3" cx="46" cy="26" r="2"/>
	<circle class="st4" cx="46" cy="26" r="2"/>
	<circle class="st3" cx="25" cy="37" r="1"/>
	<circle class="st4" cx="25" cy="37" r="1"/>
	<line class="st2" x1="6" y1="32" x2="10" y2="32"/>
	<line class="st2" x1="32" y1="58" x2="32" y2="54"/>
	<line class="st2" x1="58" y1="58" x2="58" y2="54"/>
	<line class="st2" x1="6" y1="6" x2="10" y2="6"/>
</g>
</svg>
