<?xml version="1.0" encoding="utf-8"?>
<!-- Generator: Adobe Illustrator 23.0.4, SVG Export Plug-In . SVG Version: 6.00 Build 0)  -->
<svg version="1.1" id="Bar_-_Final" xmlns="http://www.w3.org/2000/svg" xmlns:xlink="http://www.w3.org/1999/xlink" x="0px"
	 y="0px" viewBox="0 0 64 64" style="enable-background:new 0 0 64 64;" xml:space="preserve">
<style type="text/css">
	.st0{fill:#96C3E5;}
	.st1{fill:none;stroke:#0067C5;stroke-width:2;stroke-miterlimit:10;}
	.st2{fill:#FFFFFF;}
	.st3{fill:none;stroke:#FFFFFF;stroke-width:2;stroke-miterlimit:10;}
</style>
<g>
	<path class="st0" d="M7,6h50c0.6,0,1,0.4,1,1v50c0,0.6-0.4,1-1,1H7c-0.6,0-1-0.4-1-1V7C6,6.4,6.4,6,7,6z"/>
	<path class="st1" d="M7,6h50c0.6,0,1,0.4,1,1v50c0,0.6-0.4,1-1,1H7c-0.6,0-1-0.4-1-1V7C6,6.4,6.4,6,7,6z"/>
	<path class="st2" d="M11,38h6c0.6,0,1,0.4,1,1v14c0,0.6-0.4,1-1,1h-6c-0.6,0-1-0.4-1-1V39C10,38.4,10.4,38,11,38z"/>
	<path class="st3" d="M11,38h6c0.6,0,1,0.4,1,1v14c0,0.6-0.4,1-1,1h-6c-0.6,0-1-0.4-1-1V39C10,38.4,10.4,38,11,38z"/>
	<path class="st2" d="M23,26h6c0.6,0,1,0.4,1,1v26c0,0.6-0.4,1-1,1h-6c-0.6,0-1-0.4-1-1V27C22,26.4,22.4,26,23,26z"/>
	<path class="st3" d="M23,26h6c0.6,0,1,0.4,1,1v26c0,0.6-0.4,1-1,1h-6c-0.6,0-1-0.4-1-1V27C22,26.4,22.4,26,23,26z"/>
	<path class="st2" d="M35,32h6c0.6,0,1,0.4,1,1v20c0,0.6-0.4,1-1,1h-6c-0.6,0-1-0.4-1-1V33C34,32.4,34.4,32,35,32z"/>
	<path class="st3" d="M35,32h6c0.6,0,1,0.4,1,1v20c0,0.6-0.4,1-1,1h-6c-0.6,0-1-0.4-1-1V33C34,32.4,34.4,32,35,32z"/>
	<path class="st2" d="M47,20h6c0.6,0,1,0.4,1,1v32c0,0.6-0.4,1-1,1h-6c-0.6,0-1-0.4-1-1V21C46,20.4,46.4,20,47,20z"/>
	<path class="st3" d="M47,20h6c0.6,0,1,0.4,1,1v32c0,0.6-0.4,1-1,1h-6c-0.6,0-1-0.4-1-1V21C46,20.4,46.4,20,47,20z"/>
</g>
</svg>
