<?xml version="1.0" encoding="utf-8"?>
<!-- Generator: Adobe Illustrator 22.1.0, SVG Export Plug-In . SVG Version: 6.00 Build 0)  -->
<svg version="1.1" id="Light" xmlns="http://www.w3.org/2000/svg" xmlns:xlink="http://www.w3.org/1999/xlink" x="0px" y="0px"
	 width="64" height="64"
	 viewBox="0 0 64 64" style="enable-background:new 0 0 64 64;" xml:space="preserve">
<style type="text/css">
	.st0{fill:#FFFFFF;}
	.st1{fill:none;stroke:#FFFFFF;stroke-width:3;stroke-linecap:round;stroke-miterlimit:10;}
	.st2{fill:none;stroke:#96C3E5;stroke-width:3;stroke-linecap:round;stroke-miterlimit:10;}
</style>
<g>
	<path class="st0" d="M17.5,27h30c0.6,0,1,0.4,1,1v27c0,0.6-0.4,1-1,1h-30c-0.6,0-1-0.4-1-1V28C16.5,27.4,17,27,17.5,27z"/>
	<path class="st1" d="M16.6,54.3c0,0.5,0.4,1,0.9,1h30.1c0.5,0,0.9-0.5,0.9-1v-44c0-0.5-0.4-1-0.9-1H12.9c-0.6,0-1,0.5-0.9,1
		c0,0.2,0.1,0.4,0.2,0.6l4.1,8.3c0.1,0.1,0.1,0.3,0.1,0.4L16.6,54.3z"/>
	<line class="st2" x1="36.5" y1="34" x2="44.5" y2="34"/>
	<line class="st2" x1="36.5" y1="46" x2="44.5" y2="46"/>
	<line class="st2" x1="36.5" y1="40" x2="44.5" y2="40"/>
</g>
</svg>
