<?xml version="1.0" encoding="utf-8"?>
<!-- Generator: Adobe Illustrator 22.1.0, SVG Export Plug-In . SVG Version: 6.00 Build 0)  -->
<svg version="1.1" id="Layer_1" xmlns="http://www.w3.org/2000/svg" xmlns:xlink="http://www.w3.org/1999/xlink" x="0px" y="0px"
	 width="64" height="64"
	 viewBox="0 0 64 64" style="enable-background:new 0 0 64 64;" xml:space="preserve">
<style type="text/css">
	.st0{fill:#FFCC81;}
	.st1{fill:#FFA500;}
</style>
<g id="V2">
	<path class="st0" d="M51,36c0.7,1.9,1,4,1,6c0,9.9-8,18-18,18c-8.5,0-15.8-5.9-17.6-14.2C5.5,40.5,0.9,27.3,6.2,16.4
		C9.9,8.8,17.6,4,26,4c3.1,0,6.2,0.7,9.1,2c2.4-1.3,5.1-2,7.9-2c9.4,0,17,7.6,17,17C60,27.3,56.5,33,51,36z"/>
	<path class="st1" d="M43.1,24.3c0.2,0.6,0.3,1.3,0.3,1.9c0,3.2-2.6,5.8-5.8,5.8c-2.7,0-5.1-1.9-5.7-4.6c-2.5-1.2-4-3.7-4-6.4
		c0-3.9,3.3-7.1,7.2-7.1c0,0,0,0,0,0c1,0,1.9,0.2,2.8,0.6c0.8-0.4,1.6-0.6,2.5-0.6c3,0,5.5,2.4,5.5,5.5c0,0,0,0,0,0l0,0
		C46,21.4,44.9,23.3,43.1,24.3z"/>
</g>
</svg>
