<?xml version="1.0" encoding="utf-8"?>
<!-- Generator: Adobe Illustrator 22.1.0, SVG Export Plug-In . SVG Version: 6.00 Build 0)  -->
<svg version="1.1" id="Layer_1" xmlns="http://www.w3.org/2000/svg" xmlns:xlink="http://www.w3.org/1999/xlink" x="0px" y="0px"
	 width="64" height="64"
	 viewBox="0 0 64 64" style="enable-background:new 0 0 64 64;" xml:space="preserve">
<style type="text/css">
	.st0{fill:#FFFFFF;}
</style>
<g id="External">
	<path class="st0" d="M5.3,36.5H7c0.5,0,1,0.4,1,0.9v0.1v11.3c0,0.5-0.4,1-0.9,1H7H5.3c-0.5,0-1-0.4-1-0.9v-0.1V37.5
		C4.3,37,4.7,36.5,5.3,36.5L5.3,36.5z"/>
	<path class="st0" d="M6.5,52l0.8-1.4c0.3-0.5,0.9-0.6,1.4-0.4l9.8,5.7c0.5,0.3,0.6,0.9,0.4,1.4l-0.8,1.4c-0.3,0.5-0.9,0.6-1.4,0.4
		l-9.8-5.7C6.4,53.1,6.2,52.5,6.5,52L6.5,52z"/>
	<path class="st0" d="M7.4,35.6l-0.8-1.4c-0.3-0.5-0.1-1.1,0.3-1.4c0,0,0,0,0.1,0l9.8-5.7c0.5-0.3,1.1-0.1,1.4,0.3c0,0,0,0,0,0.1
		l0.8,1.4c0.3,0.5,0.1,1.1-0.3,1.4c0,0,0,0-0.1,0L8.8,36C8.3,36.2,7.7,36.1,7.4,35.6z"/>
	<path class="st0" d="M31.8,36.5h1.7c0.5,0,1,0.4,1,0.9v0.1v11.3c0,0.5-0.4,1-0.9,1h-0.1h-1.7c-0.5,0-1-0.4-1-0.9v-0.1V37.5
		C30.8,37,31.2,36.5,31.8,36.5L31.8,36.5z"/>
	<path class="st0" d="M32.2,34.2l-0.9,1.5c-0.3,0.5-0.9,0.6-1.4,0.4l-9.8-5.7c-0.5-0.3-0.6-0.9-0.4-1.4l0.8-1.4
		c0.3-0.5,0.9-0.6,1.4-0.4l9.8,5.7C32.2,33.1,32.4,33.6,32.2,34.2C32.2,34.1,32.2,34.2,32.2,34.2z"/>
	<path class="st0" d="M31.3,50.6l0.8,1.4c0.3,0.5,0.1,1.1-0.3,1.4c0,0,0,0-0.1,0l-9.8,5.7c-0.5,0.3-1.1,0.1-1.4-0.3c0,0,0,0,0-0.1
		l-0.8-1.4c-0.3-0.5-0.1-1.1,0.3-1.4c0,0,0,0,0.1,0l9.8-5.7C30.4,50,31,50.1,31.3,50.6z"/>
	<path class="st0" d="M18.5,13.4h1.7c0.5,0,1,0.4,1,0.9v0.1v11.3c0,0.5-0.4,1-0.9,1h-0.1h-1.7c-0.5,0-1-0.4-1-0.9v-0.1V14.4
		c0-0.5,0.4-1,0.9-1H18.5z"/>
	<path class="st0" d="M44.5,27.5l0.8,1.4c0.3,0.5,0.1,1.1-0.3,1.4c0,0,0,0-0.1,0L35.1,36c-0.5,0.3-1.1,0.1-1.4-0.3c0,0,0,0,0-0.1
		l-0.8-1.4c-0.3-0.5-0.1-1.1,0.3-1.4c0,0,0,0,0.1,0l9.8-5.7C43.6,26.9,44.2,27.1,44.5,27.5z"/>
	<path class="st0" d="M20.8,12.6L20,11.2c-0.3-0.5-0.1-1.1,0.3-1.4c0,0,0,0,0.1,0l9.8-5.7c0.5-0.3,1.1-0.1,1.4,0.3c0,0,0,0,0,0.1
		L32.3,6c0.3,0.5,0.1,1.1-0.3,1.4c0,0,0,0-0.1,0l-9.8,5.7C21.6,13.3,21,13.1,20.8,12.6z"/>
	<path class="st0" d="M45.1,13.4h1.7c0.5,0,1,0.4,1,0.9v0.1v11.3c0,0.5-0.4,1-0.9,1h-0.1h-1.7c-0.5,0-1-0.4-1-0.9v-0.1V14.4
		C44.1,13.8,44.5,13.4,45.1,13.4z"/>
	<path class="st0" d="M45.6,11.1l-0.8,1.5c-0.3,0.5-0.9,0.6-1.4,0.4l-9.8-5.7C33.1,7,33,6.4,33.2,5.9L34,4.5
		c0.3-0.5,0.9-0.6,1.4-0.4l9.8,5.7c0.5,0.2,0.7,0.7,0.5,1.2C45.6,11,45.6,11.1,45.6,11.1z"/>
	<path class="st0" d="M58.8,34.1L58,35.5c-0.3,0.5-0.9,0.6-1.4,0.4l-9.8-5.7c-0.5-0.3-0.6-0.9-0.4-1.4l0.8-1.4
		c0.3-0.5,0.9-0.6,1.4-0.4l9.8,5.7C58.9,33,59.1,33.6,58.8,34.1L58.8,34.1z"/>
	<path class="st0" d="M47.3,12.7l-0.8-1.4c-0.3-0.5-0.1-1.1,0.3-1.4c0,0,0,0,0.1,0l9.8-5.7c0.5-0.3,1.1-0.1,1.4,0.3c0,0,0,0,0,0.1
		L58.9,6c0.3,0.5,0.1,1.1-0.3,1.4c0,0,0,0-0.1,0l-9.8,5.7C48.2,13.3,47.6,13.1,47.3,12.7z"/>
</g>
<g id="Internal">
	<path class="st0" d="M41.3,14.4h0.8c0.3,0,0.5,0.2,0.5,0.4c0,0,0,0,0,0.1V25c0,0.3-0.2,0.5-0.4,0.5c0,0,0,0-0.1,0h-0.8
		c-0.3,0-0.5-0.2-0.5-0.4c0,0,0,0,0-0.1V14.9C40.8,14.6,41,14.4,41.3,14.4z"/>
	<path class="st0" d="M28.4,38L28,38.7c-0.2,0.2-0.4,0.3-0.7,0.2l-8.8-5.1c-0.2-0.2-0.3-0.4-0.2-0.7l0.4-0.7
		c0.2-0.2,0.4-0.3,0.7-0.2l8.8,5.1C28.5,37.4,28.5,37.7,28.4,38z"/>
	<path class="st0" d="M23.7,15.4l-0.5-0.9c-0.1-0.2,0-0.6,0.2-0.7l8.8-5.1c0.1-0.1,0.4,0,0.6,0.2l0.5,0.9c0.1,0.2,0,0.6-0.2,0.7
		l-8.8,5.1C24.1,15.7,23.9,15.7,23.7,15.4C23.7,15.5,23.7,15.4,23.7,15.4z"/>
	<path class="st0" d="M28.4,47.7l0.5,0.9c0.1,0.2,0,0.6-0.2,0.7l-8.8,5.1c-0.2,0.1-0.6,0-0.7-0.2l-0.5-0.9c-0.1-0.2,0-0.6,0.2-0.7
		l8.8-5.1C28,47.4,28.2,47.5,28.4,47.7z"/>
	<path class="st0" d="M9.6,37.9h0.8c0.3,0,0.5,0.2,0.5,0.4c0,0,0,0,0,0.1v10.1c0,0.3-0.2,0.5-0.4,0.5c0,0,0,0-0.1,0H9.6
		c-0.3,0-0.5-0.2-0.5-0.4c0,0,0,0,0-0.1V38.4C9.1,38.1,9.3,37.9,9.6,37.9L9.6,37.9z"/>
</g>
</svg>
