<?xml version="1.0" encoding="utf-8"?>
<!-- Generator: Adobe Illustrator 22.1.0, SVG Export Plug-In . SVG Version: 6.00 Build 0)  -->
<svg version="1.1" id="Layer_1" xmlns="http://www.w3.org/2000/svg" xmlns:xlink="http://www.w3.org/1999/xlink" x="0px" y="0px"
	 width="64" height="64"
	 viewBox="0 0 64 64" style="enable-background:new 0 0 64 64;" xml:space="preserve">
<style type="text/css">
	.st0{fill:#0067C5;}
	.st1{fill:#96C3E5;}
</style>
<title>chemistry</title>
<g id="V2">
	<g id="External">
		<path class="st0" d="M6,36.9h1.7c0.5,0,1,0.4,1,0.9c0,0,0,0.1,0,0.1v11.3c0,0.5-0.4,1-0.9,1c0,0-0.1,0-0.1,0H6c-0.5,0-1-0.4-1-0.9
			c0,0,0-0.1,0-0.1V37.9c0-0.5,0.4-1,0.9-1C5.9,36.9,6,36.9,6,36.9z"/>
		<path class="st0" d="M7.2,52.4L8,51c0.3-0.5,0.9-0.6,1.4-0.4l9.8,5.7c0.5,0.3,0.6,0.9,0.4,1.4l-0.8,1.4c-0.3,0.5-0.9,0.6-1.4,0.4
			l-9.8-5.7C7.1,53.5,6.9,52.9,7.2,52.4C7.2,52.4,7.2,52.4,7.2,52.4z"/>
		<path class="st0" d="M8.1,36l-0.8-1.4c-0.3-0.5-0.1-1.1,0.3-1.4c0,0,0,0,0.1,0l9.8-5.7c0.5-0.3,1.1-0.1,1.4,0.3c0,0,0,0,0,0.1
			l0.8,1.4c0.3,0.5,0.1,1.1-0.3,1.4c0,0,0,0-0.1,0l-9.8,5.7C9,36.6,8.4,36.5,8.1,36z"/>
		<path class="st0" d="M32.5,36.9h1.7c0.5,0,1,0.4,1,0.9c0,0,0,0.1,0,0.1v11.3c0,0.5-0.4,1-0.9,1c0,0-0.1,0-0.1,0h-1.7
			c-0.5,0-1-0.4-1-0.9c0,0,0-0.1,0-0.1V37.9c0-0.5,0.4-1,0.9-1C32.4,36.9,32.5,36.9,32.5,36.9z"/>
		<path class="st0" d="M32.9,34.6L32,36.1c-0.3,0.5-0.9,0.6-1.4,0.4l-9.8-5.7c-0.5-0.3-0.6-0.9-0.4-1.4l0.8-1.4
			c0.3-0.5,0.9-0.6,1.4-0.4l9.8,5.7c0.5,0.2,0.7,0.7,0.6,1.2C32.9,34.5,32.9,34.6,32.9,34.6z"/>
		<path class="st0" d="M32,51l0.8,1.4c0.3,0.5,0.1,1.1-0.3,1.4c0,0,0,0-0.1,0l-9.8,5.7c-0.5,0.3-1.1,0.1-1.4-0.3c0,0,0,0,0-0.1
			l-0.8-1.4c-0.3-0.5-0.1-1.1,0.3-1.4c0,0,0,0,0.1,0l9.8-5.7C31.1,50.4,31.7,50.5,32,51z"/>
		<path class="st0" d="M19.2,13.8h1.7c0.5,0,1,0.4,1,0.9c0,0,0,0.1,0,0.1v11.3c0,0.5-0.4,1-0.9,1c0,0-0.1,0-0.1,0h-1.7
			c-0.5,0-1-0.4-1-0.9c0,0,0-0.1,0-0.1V14.8c0-0.5,0.4-1,0.9-1C19.1,13.8,19.2,13.8,19.2,13.8z"/>
		<path class="st0" d="M45.2,27.9l0.8,1.4c0.3,0.5,0.1,1.1-0.3,1.4c0,0,0,0-0.1,0l-9.8,5.7c-0.5,0.3-1.1,0.1-1.4-0.3c0,0,0,0,0-0.1
			l-0.8-1.4c-0.3-0.5-0.1-1.1,0.3-1.4c0,0,0,0,0.1,0l9.8-5.7C44.3,27.3,44.9,27.5,45.2,27.9z"/>
		<path class="st0" d="M21.5,13l-0.8-1.4c-0.3-0.5-0.1-1.1,0.3-1.4c0,0,0,0,0.1,0l9.8-5.7c0.5-0.3,1.1-0.1,1.4,0.3c0,0,0,0,0,0.1
			L33,6.4c0.3,0.5,0.1,1.1-0.3,1.4c0,0,0,0-0.1,0l-9.8,5.7C22.3,13.7,21.7,13.5,21.5,13z"/>
		<path class="st0" d="M45.8,13.8h1.7c0.5,0,1,0.4,1,0.9c0,0,0,0.1,0,0.1v11.3c0,0.5-0.4,1-0.9,1c0,0-0.1,0-0.1,0h-1.7
			c-0.5,0-1-0.4-1-0.9c0,0,0-0.1,0-0.1V14.8C44.8,14.2,45.2,13.8,45.8,13.8z"/>
		<path class="st0" d="M46.3,11.5L45.5,13c-0.3,0.5-0.9,0.6-1.4,0.4l-9.8-5.7c-0.5-0.3-0.6-0.9-0.4-1.4l0.8-1.4
			c0.3-0.5,0.9-0.6,1.4-0.4l9.8,5.7c0.5,0.2,0.7,0.7,0.5,1.2C46.3,11.4,46.3,11.5,46.3,11.5z"/>
		<path class="st0" d="M59.5,34.5l-0.8,1.4c-0.3,0.5-0.9,0.6-1.4,0.4l-9.8-5.7c-0.5-0.3-0.6-0.9-0.4-1.4l0.8-1.4
			c0.3-0.5,0.9-0.6,1.4-0.4l9.8,5.7C59.6,33.4,59.8,34,59.5,34.5C59.5,34.5,59.5,34.5,59.5,34.5z"/>
		<path class="st0" d="M48,13.1l-0.8-1.4c-0.3-0.5-0.1-1.1,0.3-1.4c0,0,0,0,0.1,0l9.8-5.7c0.5-0.3,1.1-0.1,1.4,0.3c0,0,0,0,0,0.1
			l0.8,1.4c0.3,0.5,0.1,1.1-0.3,1.4c0,0,0,0-0.1,0l-9.8,5.7C48.9,13.7,48.3,13.5,48,13.1z"/>
	</g>
	<g id="Internal">
		<path class="st1" d="M42,14.8h0.8c0.3,0,0.5,0.2,0.5,0.4c0,0,0,0,0,0.1v10.1c0,0.3-0.2,0.5-0.4,0.5c0,0,0,0-0.1,0H42
			c-0.3,0-0.5-0.2-0.5-0.4c0,0,0,0,0-0.1V15.3C41.5,15,41.7,14.8,42,14.8z"/>
		<path class="st1" d="M29.1,38.4l-0.4,0.7c-0.2,0.2-0.4,0.3-0.7,0.2l-8.8-5.1C19,34,18.9,33.8,19,33.5l0.4-0.7
			c0.2-0.2,0.4-0.3,0.7-0.2l8.8,5.1C29.2,37.8,29.2,38.1,29.1,38.4z"/>
		<path class="st1" d="M24.4,15.8l-0.5-0.9c-0.1-0.2,0-0.6,0.2-0.7l8.8-5.1c0.1-0.1,0.4,0,0.6,0.2l0.5,0.9c0.1,0.2,0,0.6-0.2,0.7
			L25,16C24.8,16.1,24.6,16.1,24.4,15.8C24.4,15.9,24.4,15.8,24.4,15.8z"/>
		<path class="st1" d="M29.1,48.1l0.5,0.9c0.1,0.2,0,0.6-0.2,0.7l-8.8,5.1c-0.2,0.1-0.6,0-0.7-0.2l-0.5-0.9c-0.1-0.2,0-0.6,0.2-0.7
			l8.8-5.1C28.7,47.8,28.9,47.9,29.1,48.1z"/>
		<path class="st1" d="M10.3,38.3h0.8c0.3,0,0.5,0.2,0.5,0.4c0,0,0,0,0,0.1v10.1c0,0.3-0.2,0.5-0.4,0.5c0,0,0,0-0.1,0h-0.8
			c-0.3,0-0.5-0.2-0.5-0.4c0,0,0,0,0-0.1V38.8C9.8,38.5,10,38.3,10.3,38.3C10.3,38.3,10.3,38.3,10.3,38.3z"/>
	</g>
</g>
</svg>
