<?xml version="1.0" encoding="UTF-8"?>
<svg width="280px" height="371px" viewBox="0 0 280 371" version="1.1" xmlns="http://www.w3.org/2000/svg" xmlns:xlink="http://www.w3.org/1999/xlink">
    <title>Group 51</title>
    <g id="Page-1" stroke="none" stroke-width="1" fill="none" fill-rule="evenodd" stroke-linecap="round">
        <g id="Code-Exception---Collapsed" transform="translate(-1014.000000, -132.000000)" stroke-width="9.6">
            <g id="Group-51" transform="translate(1019.000000, 137.000000)">
                <line x1="262.16292" y1="64.23354" x2="192.77292" y2="22.54014" id="Stroke-1" stroke="#D89398"></line>
                <polyline id="Stroke-3" stroke="#D89398" points="219.12876 57.26496 253.82376 78.11136 239.94576 69.77316"></polyline>
                <line x1="223.2684" y1="97.52886" x2="202.4514" y2="85.02066" id="Stroke-4" stroke="#D89398"></line>
                <line x1="157.95804" y1="190.506" x2="95.50704" y2="152.9814" id="Stroke-5" stroke="#D89398"></line>
                <polyline id="Stroke-6" stroke="#D89398" points="131.60142 155.781 103.84542 139.1034 110.78502 143.2722"></polyline>
                <line x1="155.2182" y1="132.1941" x2="134.4012" y2="119.6859" id="Stroke-7" stroke="#D89398"></line>
                <g id="Group-50" transform="translate(0.000000, 0.390600)">
                    <path d="M269.38926,50.24214 C269.38926,50.24214 248.52726,108.53874 177.72306,108.49434 C106.91826,108.44934 86.05566,166.74594 86.05566,166.74594" id="Stroke-8" stroke="#D89398" stroke-linejoin="round"></path>
                    <path d="M186.12114,0.20952 C186.12114,0.20952 144.44214,45.99792 177.72294,108.49452 C211.00374,170.98992 169.32414,216.77832 169.32414,216.77832" id="Stroke-10" stroke="#B82025" stroke-linejoin="round"></path>
                    <line x1="170.5557" y1="27.6882" x2="198.3117" y2="44.3658" id="Stroke-12" stroke="#B82025"></line>
                    <line x1="167.42094" y1="44.69328" x2="224.66814" y2="79.09068" id="Stroke-14" stroke="#B82025"></line>
                    <line x1="166.02174" y1="62.7408" x2="186.83814" y2="75.249" id="Stroke-16" stroke="#B82025"></line>
                    <polyline id="Stroke-18" stroke="#B82025" points="152.4186 167.89842 187.1136 188.74542 173.2356 180.40662"></polyline>
                    <line x1="133.00122" y1="137.34294" x2="186.77862" y2="169.65534" id="Stroke-20" stroke="#B82025"></line>
                    <line x1="167.36172" y1="139.10016" x2="188.17812" y2="151.60836" id="Stroke-22" stroke="#B82025"></line>
                    <polyline id="Stroke-24" stroke="#D89398" points="133.07268 200.09568 167.76768 220.94208 153.88968 212.60388"></polyline>
                    <line x1="137.21232" y1="240.35952" x2="116.39532" y2="227.85132" id="Stroke-26" stroke="#D89398"></line>
                    <line x1="71.90202" y1="333.33666" x2="9.45042" y2="295.81206" id="Stroke-28" stroke="#D89398"></line>
                    <polyline id="Stroke-30" stroke="#D89398" points="45.54534 298.61166 17.78934 281.93406 24.72894 286.10346"></polyline>
                    <line x1="69.16212" y1="275.02476" x2="48.34512" y2="262.51656" id="Stroke-32" stroke="#D89398"></line>
                    <path d="M183.385861,193.133525 C183.385861,193.133525 181.779427,197.825335 177.28243,205.455652 C167.187542,222.584237 141.811768,251.747105 91.66704,251.71566 C20.86224,251.67066 -0.00036,309.96726 -0.00036,309.96726" id="Stroke-34" stroke="#D89398" stroke-linejoin="round"></path>
                    <path d="M100.06506,143.43084 C100.06506,143.43084 58.38606,189.21924 91.66686,251.71584 C124.94706,314.21184 83.26806,359.99964 83.26806,359.99964" id="Stroke-36" stroke="#B82025" stroke-linejoin="round"></path>
                    <line x1="84.49962" y1="170.90952" x2="112.25562" y2="187.58712" id="Stroke-38" stroke="#B82025"></line>
                    <line x1="81.36486" y1="187.9146" x2="138.61206" y2="222.312" id="Stroke-40" stroke="#B82025"></line>
                    <line x1="79.96566" y1="205.96206" x2="100.78206" y2="218.47086" id="Stroke-42" stroke="#B82025"></line>
                    <polyline id="Stroke-44" stroke="#B82025" points="66.36252 311.11968 101.05752 331.96668 87.17952 323.62788"></polyline>
                    <line x1="46.94514" y1="280.5642" x2="100.72254" y2="312.8766" id="Stroke-46" stroke="#B82025"></line>
                    <line x1="81.3051" y1="282.32142" x2="102.1221" y2="294.82962" id="Stroke-48" stroke="#B82025"></line>
                </g>
            </g>
        </g>
    </g>
</svg>