<svg width="64" height="64" viewBox="0 0 64 64" fill="none" xmlns="http://www.w3.org/2000/svg">
<line x1="33.8398" y1="23.7547" x2="42.4256" y2="15.1689" stroke="white" stroke-width="2" stroke-linecap="round"/>
<line x1="19" y1="58.5858" x2="25.5858" y2="52" stroke="white" stroke-width="2" stroke-linecap="round"/>
<line x1="42" y1="45.5858" x2="48.5858" y2="39" stroke="white" stroke-width="2" stroke-linecap="round"/>
<line x1="23" y1="17" x2="23" y2="11" stroke="white" stroke-width="2" stroke-linecap="round"/>
<path d="M22.4319 42.1714L33.8444 35.5824L45.2568 42.1714V55.3494L33.8444 61.9384L22.4319 55.3494V42.1714Z" fill="white" stroke="white" stroke-width="2"/>
<path fill-rule="evenodd" clip-rule="evenodd" d="M40.8002 9.06767C42.1909 8.86846 43.6976 9.09947 45.0649 9.88882C48.2766 11.7434 49.3737 15.8399 47.52 19.0525C46.0993 21.5122 43.3721 22.7626 40.7805 22.3595C39.9388 22.238 39.1083 21.9415 38.3573 21.5075C35.1447 19.652 34.0467 15.5555 35.9022 12.3448C36.9665 10.4986 38.8025 9.37163 40.8002 9.06767" fill="white"/>
<path fill-rule="evenodd" clip-rule="evenodd" d="M27.7435 10.6368C26.1537 13.3899 22.633 14.3332 19.8799 12.7434C17.125 11.1536 16.1834 7.63287 17.7715 4.87973C19.3613 2.12659 22.882 1.18159 25.6369 2.77309C28.39 4.36117 29.3333 7.88362 27.7435 10.6368" fill="white"/>
<path d="M11.9202 23.4468L23.3327 16.8578L34.7451 23.4468V36.6248L23.3327 43.2137L11.9202 36.6248V23.4468Z" fill="white" stroke="white" stroke-width="2"/>
</svg>
