<?xml version="1.0" encoding="UTF-8"?>
<svg width="348px" height="204px" viewBox="0 0 348 204" version="1.1" xmlns="http://www.w3.org/2000/svg" xmlns:xlink="http://www.w3.org/1999/xlink">
    <title>Group 36</title>
    <g id="Page-1" stroke="none" stroke-width="1" fill="none" fill-rule="evenodd">
        <g id="Server-Configuration-(Tomcat)---Collapsed" transform="translate(-940.000000, -146.000000)">
            <g id="Group-36" transform="translate(946.000000, 152.000000)">
                <g id="Group-9" transform="translate(33.000000, 13.500000)">
                    <path d="M60,6.8994 L60,112.4994 C60,123.2994 51,132.2994 40.2,132.2994 L33.6,132.2994 C22.8,132.2994 13.8,123.2994 13.8,112.4994 L13.8,6.8994 L60,6.8994 Z" id="Stroke-1" stroke="#D89398" stroke-width="6.6"></path>
                    <line x1="0.5976" y1="0.2988" x2="73.2036" y2="0.2988" id="Stroke-3" stroke="#D89398" stroke-width="6.6" stroke-linecap="round"></line>
                    <path d="M28.1988,67.4976 C26.9988,68.0976 26.4048,69.2976 26.4048,70.4976 L26.4048,110.7036 C26.4048,115.4976 29.4048,119.7036 34.1988,120.9036 C40.7988,122.0976 46.1988,117.2976 46.1988,111.2976 L46.1988,65.0976 C46.1988,62.0976 44.9988,59.7036 43.1988,57.9036 C41.4048,56.7036 38.9988,57.2976 37.7988,59.0976 C35.9988,62.7036 32.4048,66.2976 28.1988,67.4976 Z" id="Fill-5" fill="#D89398"></path>
                    <path d="M37.7988,59.0976 C35.9988,62.7036 32.4048,66.2976 28.1988,67.4976 C26.9988,68.0976 26.4048,69.2976 26.4048,70.4976 L26.4048,110.7036 C26.4048,115.4976 29.4048,119.7036 34.1988,120.9036 C40.7988,122.0976 46.1988,117.2976 46.1988,111.2976 L46.1988,65.0976 C46.1988,62.0976 44.9988,59.7036 43.1988,57.9036 C41.4048,56.7036 38.9988,57.2976 37.7988,59.0976 Z" id="Stroke-7" stroke="#D89398" stroke-width="6.6" stroke-linecap="round"></path>
                </g>
                <g id="Group-18" transform="translate(129.000000, 13.500000)">
                    <path d="M60,6.8994 L60,112.4994 C60,123.2994 51,132.2994 40.2,132.2994 L33.6,132.2994 C22.8,132.2994 13.8,123.2994 13.8,112.4994 L13.8,6.8994 L60,6.8994 Z" id="Stroke-10" stroke="#D89398" stroke-width="6.6"></path>
                    <line x1="0.5976" y1="0.2988" x2="73.2036" y2="0.2988" id="Stroke-12" stroke="#D89398" stroke-width="6.6" stroke-linecap="round"></line>
                    <path d="M28.1988,67.4976 C26.9988,68.0976 26.4048,69.2976 26.4048,70.4976 L26.4048,110.7036 C26.4048,115.4976 29.4048,119.7036 34.1988,120.9036 C40.7988,122.0976 46.1988,117.2976 46.1988,111.2976 L46.1988,65.0976 C46.1988,62.0976 44.9988,59.7036 43.1988,57.9036 C41.4048,56.7036 38.9988,57.2976 37.7988,59.0976 C35.9988,62.7036 32.4048,66.2976 28.1988,67.4976 Z" id="Fill-14" fill="#D89398"></path>
                    <path d="M37.7988,59.0976 C35.9988,62.7036 32.4048,66.2976 28.1988,67.4976 C26.9988,68.0976 26.4048,69.2976 26.4048,70.4976 L26.4048,110.7036 C26.4048,115.4976 29.4048,119.7036 34.1988,120.9036 C40.7988,122.0976 46.1988,117.2976 46.1988,111.2976 L46.1988,65.0976 C46.1988,62.0976 44.9988,59.7036 43.1988,57.9036 C41.4048,56.7036 38.9988,57.2976 37.7988,59.0976 Z" id="Stroke-16" stroke="#D89398" stroke-width="6.6" stroke-linecap="round"></path>
                </g>
                <g id="Group-27" transform="translate(238.500000, 15.000000)" stroke="#D89398" stroke-dasharray="6,18" stroke-linecap="round" stroke-linejoin="round" stroke-width="6.6">
                    <path d="M47.0976,0.2988 L47.0976,111.456695 C47.0976,122.825116 38.0976,132.2988 27.2976,132.2988 L20.7036,132.2988 C9.9036,132.2988 0.9036,122.825116 0.9036,111.456695 L0.9036,0.2988 L47.0976,0.2988 Z" id="Stroke-20"></path>
                </g>
                <line x1="324" y1="0" x2="324" y2="192" id="Stroke-28" stroke="#B82025" stroke-width="12" stroke-linecap="round"></line>
                <line x1="12" y1="0" x2="12" y2="192" id="Stroke-30" stroke="#B82025" stroke-width="12" stroke-linecap="round"></line>
                <line x1="0" y1="168" x2="336" y2="168" id="Stroke-32" stroke="#B82025" stroke-width="12" stroke-linecap="round"></line>
                <line x1="0" y1="49.7988" x2="336" y2="49.7988" id="Stroke-34" stroke="#B82025" stroke-width="12" stroke-linecap="round"></line>
            </g>
        </g>
    </g>
</svg>