<?xml version="1.0" encoding="utf-8"?>
<!-- Generator: Adobe Illustrator 22.1.0, SVG Export Plug-In . SVG Version: 6.00 Build 0)  -->
<svg version="1.1" id="Layer_1" xmlns="http://www.w3.org/2000/svg" xmlns:xlink="http://www.w3.org/1999/xlink" x="0px" y="0px"
	 width="64" height="64"
	 viewBox="0 0 64 64" style="enable-background:new 0 0 64 64;" xml:space="preserve">
<style type="text/css">
	.st0{fill:#96C3E5;stroke:#96C3E5;stroke-width:2;stroke-miterlimit:10;}
	.st1{fill:#0067C5;stroke:#0067C5;stroke-width:2;stroke-miterlimit:10;}
</style>
<g id="V3">
	<path class="st0" d="M29.6,57.9C17.5,56.8,7.8,47.3,6.3,35.2l5-2.5l4.2,2.1l0,0c1.2,7,6.5,12.5,13.5,13.8l-2,3.9L29.6,57.9z"/>
	<path class="st0" d="M58,34.2c-1,12.1-10.3,21.9-22.4,23.6L33,52.5l1.9-3.9c7.1-1.2,12.6-6.8,13.8-13.9l4.1,2L58,34.2z"/>
	<path class="st1" d="M57.8,28.3l-5,2.5l-4.2-2.1l0,0c-1.4-6.9-6.8-12.2-13.7-13.3l2.2-4.4l-2.4-4.9C46.5,7.3,56.1,16.4,57.8,28.3z"
		/>
	<path class="st0" d="M31.1,11l-2.2,4.5c-6.8,1.3-12,6.6-13.3,13.4l-4.3-2.1l-5,2.5c1.3-11.9,10.6-21.4,22.5-23L31.1,11z"/>
</g>
</svg>
