<?xml version="1.0" encoding="utf-8"?>
<!-- Generator: Adobe Illustrator 23.0.4, SVG Export Plug-In . SVG Version: 6.00 Build 0)  -->
<svg version="1.1" id="Grid_-_Final" xmlns="http://www.w3.org/2000/svg" xmlns:xlink="http://www.w3.org/1999/xlink" x="0px"
	 y="0px" viewBox="0 0 64 64" style="enable-background:new 0 0 64 64;" xml:space="preserve">
<style type="text/css">
	.st0{fill:#0067C5;}
	.st1{fill:none;stroke:#0067C5;stroke-width:2;stroke-linecap:round;stroke-miterlimit:10;}
	.st2{fill:#96C3E5;}
	.st3{fill:none;stroke:#96C3E5;stroke-width:2;stroke-linecap:round;stroke-miterlimit:10;}
</style>
<g>
	<path class="st0" d="M5,4h54c0.6,0,1,0.4,1,1v6c0,0.6-0.4,1-1,1H5c-0.6,0-1-0.4-1-1V5C4,4.4,4.4,4,5,4z"/>
	<path class="st1" d="M5,4h54c0.6,0,1,0.4,1,1v6c0,0.6-0.4,1-1,1H5c-0.6,0-1-0.4-1-1V5C4,4.4,4.4,4,5,4z"/>
	<path class="st2" d="M7,16h8c0.6,0,1,0.4,1,1v6c0,0.6-0.4,1-1,1H7c-0.6,0-1-0.4-1-1v-6C6,16.4,6.4,16,7,16z"/>
	<path class="st3" d="M7,16h8c0.6,0,1,0.4,1,1v6c0,0.6-0.4,1-1,1H7c-0.6,0-1-0.4-1-1v-6C6,16.4,6.4,16,7,16z"/>
	<path class="st2" d="M21,16h8c0.6,0,1,0.4,1,1v6c0,0.6-0.4,1-1,1h-8c-0.6,0-1-0.4-1-1v-6C20,16.4,20.4,16,21,16z"/>
	<path class="st3" d="M21,16h8c0.6,0,1,0.4,1,1v6c0,0.6-0.4,1-1,1h-8c-0.6,0-1-0.4-1-1v-6C20,16.4,20.4,16,21,16z"/>
	<path class="st2" d="M35,16h8c0.6,0,1,0.4,1,1v6c0,0.6-0.4,1-1,1h-8c-0.6,0-1-0.4-1-1v-6C34,16.4,34.4,16,35,16z"/>
	<path class="st3" d="M35,16h8c0.6,0,1,0.4,1,1v6c0,0.6-0.4,1-1,1h-8c-0.6,0-1-0.4-1-1v-6C34,16.4,34.4,16,35,16z"/>
	<path class="st2" d="M49,16h8c0.6,0,1,0.4,1,1v6c0,0.6-0.4,1-1,1h-8c-0.6,0-1-0.4-1-1v-6C48,16.4,48.4,16,49,16z"/>
	<path class="st3" d="M49,16h8c0.6,0,1,0.4,1,1v6c0,0.6-0.4,1-1,1h-8c-0.6,0-1-0.4-1-1v-6C48,16.4,48.4,16,49,16z"/>
	<path class="st2" d="M7,28h8c0.6,0,1,0.4,1,1v6c0,0.6-0.4,1-1,1H7c-0.6,0-1-0.4-1-1v-6C6,28.4,6.4,28,7,28z"/>
	<path class="st3" d="M7,28h8c0.6,0,1,0.4,1,1v6c0,0.6-0.4,1-1,1H7c-0.6,0-1-0.4-1-1v-6C6,28.4,6.4,28,7,28z"/>
	<path class="st2" d="M21,28h8c0.6,0,1,0.4,1,1v6c0,0.6-0.4,1-1,1h-8c-0.6,0-1-0.4-1-1v-6C20,28.4,20.4,28,21,28z"/>
	<path class="st3" d="M21,28h8c0.6,0,1,0.4,1,1v6c0,0.6-0.4,1-1,1h-8c-0.6,0-1-0.4-1-1v-6C20,28.4,20.4,28,21,28z"/>
	<path class="st2" d="M35,28h8c0.6,0,1,0.4,1,1v6c0,0.6-0.4,1-1,1h-8c-0.6,0-1-0.4-1-1v-6C34,28.4,34.4,28,35,28z"/>
	<path class="st3" d="M35,28h8c0.6,0,1,0.4,1,1v6c0,0.6-0.4,1-1,1h-8c-0.6,0-1-0.4-1-1v-6C34,28.4,34.4,28,35,28z"/>
	<path class="st2" d="M49,28h8c0.6,0,1,0.4,1,1v6c0,0.6-0.4,1-1,1h-8c-0.6,0-1-0.4-1-1v-6C48,28.4,48.4,28,49,28z"/>
	<path class="st3" d="M49,28h8c0.6,0,1,0.4,1,1v6c0,0.6-0.4,1-1,1h-8c-0.6,0-1-0.4-1-1v-6C48,28.4,48.4,28,49,28z"/>
	<path class="st2" d="M7,40h8c0.6,0,1,0.4,1,1v6c0,0.6-0.4,1-1,1H7c-0.6,0-1-0.4-1-1v-6C6,40.4,6.4,40,7,40z"/>
	<path class="st3" d="M7,40h8c0.6,0,1,0.4,1,1v6c0,0.6-0.4,1-1,1H7c-0.6,0-1-0.4-1-1v-6C6,40.4,6.4,40,7,40z"/>
	<path class="st2" d="M21,40h8c0.6,0,1,0.4,1,1v6c0,0.6-0.4,1-1,1h-8c-0.6,0-1-0.4-1-1v-6C20,40.4,20.4,40,21,40z"/>
	<path class="st3" d="M21,40h8c0.6,0,1,0.4,1,1v6c0,0.6-0.4,1-1,1h-8c-0.6,0-1-0.4-1-1v-6C20,40.4,20.4,40,21,40z"/>
	<path class="st2" d="M35,40h8c0.6,0,1,0.4,1,1v6c0,0.6-0.4,1-1,1h-8c-0.6,0-1-0.4-1-1v-6C34,40.4,34.4,40,35,40z"/>
	<path class="st3" d="M35,40h8c0.6,0,1,0.4,1,1v6c0,0.6-0.4,1-1,1h-8c-0.6,0-1-0.4-1-1v-6C34,40.4,34.4,40,35,40z"/>
	<path class="st2" d="M49,40h8c0.6,0,1,0.4,1,1v6c0,0.6-0.4,1-1,1h-8c-0.6,0-1-0.4-1-1v-6C48,40.4,48.4,40,49,40z"/>
	<path class="st3" d="M49,40h8c0.6,0,1,0.4,1,1v6c0,0.6-0.4,1-1,1h-8c-0.6,0-1-0.4-1-1v-6C48,40.4,48.4,40,49,40z"/>
	<path class="st2" d="M7,52h8c0.6,0,1,0.4,1,1v6c0,0.6-0.4,1-1,1H7c-0.6,0-1-0.4-1-1v-6C6,52.4,6.4,52,7,52z"/>
	<path class="st3" d="M7,52h8c0.6,0,1,0.4,1,1v6c0,0.6-0.4,1-1,1H7c-0.6,0-1-0.4-1-1v-6C6,52.4,6.4,52,7,52z"/>
	<path class="st2" d="M21,52h8c0.6,0,1,0.4,1,1v6c0,0.6-0.4,1-1,1h-8c-0.6,0-1-0.4-1-1v-6C20,52.4,20.4,52,21,52z"/>
	<path class="st3" d="M21,52h8c0.6,0,1,0.4,1,1v6c0,0.6-0.4,1-1,1h-8c-0.6,0-1-0.4-1-1v-6C20,52.4,20.4,52,21,52z"/>
	<path class="st2" d="M35,52h8c0.6,0,1,0.4,1,1v6c0,0.6-0.4,1-1,1h-8c-0.6,0-1-0.4-1-1v-6C34,52.4,34.4,52,35,52z"/>
	<path class="st3" d="M35,52h8c0.6,0,1,0.4,1,1v6c0,0.6-0.4,1-1,1h-8c-0.6,0-1-0.4-1-1v-6C34,52.4,34.4,52,35,52z"/>
	<path class="st2" d="M49,52h8c0.6,0,1,0.4,1,1v6c0,0.6-0.4,1-1,1h-8c-0.6,0-1-0.4-1-1v-6C48,52.4,48.4,52,49,52z"/>
	<path class="st3" d="M49,52h8c0.6,0,1,0.4,1,1v6c0,0.6-0.4,1-1,1h-8c-0.6,0-1-0.4-1-1v-6C48,52.4,48.4,52,49,52z"/>
</g>
</svg>
