<?xml version="1.0" encoding="utf-8"?>
<!-- Generator: Adobe Illustrator 22.1.0, SVG Export Plug-In . SVG Version: 6.00 Build 0)  -->
<svg version="1.1" id="Layer_1" xmlns="http://www.w3.org/2000/svg" xmlns:xlink="http://www.w3.org/1999/xlink" x="0px" y="0px"
	 width="64" height="64"
	 viewBox="0 0 64 64" style="enable-background:new 0 0 64 64;" xml:space="preserve">
<style type="text/css">
	.st0{fill:none;stroke:#FFCC81;stroke-width:1.1;stroke-miterlimit:10;}
	.st1{fill:none;stroke:#FFCC81;stroke-width:1.1;stroke-linecap:round;stroke-miterlimit:10;}
	.st2{fill:#FFCC81;stroke:#FFCC81;stroke-width:1.1;stroke-linecap:round;stroke-miterlimit:10;}
	.st3{fill:none;stroke:#FFA500;stroke-width:2;stroke-linecap:round;stroke-miterlimit:10;}
</style>
<g id="V4">
	<g id="Left">
		<path class="st0" d="M19.7,21.6v17.6c0,1.8-1.5,3.3-3.3,3.3h-1.1c-1.8,0-3.3-1.5-3.3-3.3V21.6H19.7z"/>
		<line class="st1" x1="9.8" y1="20.5" x2="21.9" y2="20.5"/>
		<path class="st2" d="M16,30.3c-0.3,0.7-0.9,1.2-1.6,1.4c-0.2,0.1-0.3,0.3-0.3,0.5v6.7c0,0.8,0.5,1.5,1.3,1.7
			c0.9,0.2,1.8-0.3,2-1.2c0,0,0,0,0,0c0-0.1,0-0.2,0-0.3v-7.7c0-0.5-0.2-0.9-0.5-1.2C16.6,29.9,16.2,30,16,30.3
			C16,30.3,16,30.3,16,30.3z"/>
	</g>
	<g id="Mid">
		<path class="st0" d="M35.7,21.6v17.6c0,1.8-1.5,3.3-3.3,3.3h-1.1c-1.8,0-3.3-1.5-3.3-3.3V21.6H35.7z"/>
		<line class="st1" x1="25.8" y1="20.5" x2="37.9" y2="20.5"/>
		<path class="st2" d="M32,30.3c-0.3,0.7-0.9,1.2-1.6,1.4c-0.2,0.1-0.3,0.3-0.3,0.5v6.7c0,0.8,0.5,1.5,1.3,1.7
			c0.9,0.2,1.8-0.3,2-1.2c0,0,0,0,0,0c0-0.1,0-0.2,0-0.3v-7.7c0-0.5-0.2-0.9-0.5-1.2C32.6,29.9,32.2,30,32,30.3
			C32,30.3,32,30.3,32,30.3z"/>
	</g>
	<g id="Right">
		<path class="st0" d="M51.8,21.6v17.6c0,1.8-1.5,3.3-3.3,3.3h-1.1c-1.8,0-3.3-1.5-3.3-3.3V21.6H51.8z"/>
		<line class="st1" x1="41.9" y1="20.5" x2="54" y2="20.5"/>
		<path class="st2" d="M48.1,30.3c-0.3,0.7-0.9,1.2-1.6,1.4c-0.2,0.1-0.3,0.3-0.3,0.5v6.7c0,0.8,0.5,1.5,1.3,1.7
			c0.9,0.2,1.8-0.3,2-1.2c0,0,0,0,0,0c0-0.1,0-0.2,0-0.3v-7.7c0-0.5-0.2-0.9-0.5-1.2C48.7,29.9,48.3,30,48.1,30.3
			C48.1,30.3,48.1,30.3,48.1,30.3z"/>
	</g>
	<g id="Rack">
		<line class="st3" x1="58.2" y1="18.2" x2="58.2" y2="50.2"/>
		<line class="st3" x1="6.2" y1="18.2" x2="6.2" y2="50.2"/>
		<line class="st3" x1="4.2" y1="46.2" x2="60.2" y2="46.2"/>
		<line class="st3" x1="4.2" y1="26.5" x2="60.2" y2="26.5"/>
	</g>
</g>
</svg>
