<?xml version="1.0" encoding="utf-8"?>
<!-- Generator: Adobe Illustrator 22.1.0, SVG Export Plug-In . SVG Version: 6.00 Build 0)  -->
<svg version="1.1" id="Layer_1" xmlns="http://www.w3.org/2000/svg" xmlns:xlink="http://www.w3.org/1999/xlink" x="0px" y="0px"
	 width="64" height="64"
	 viewBox="0 0 64.7 64" style="enable-background:new 0 0 64.7 64;" xml:space="preserve">
<style type="text/css">
	.st0{fill:#96C3E5;}
	.st1{fill:none;stroke:#0067C5;stroke-width:2;stroke-miterlimit:10;}
	.st2{fill:#0067C5;}
	.st3{fill:none;stroke:#FFFFFF;stroke-width:2;stroke-linecap:round;stroke-miterlimit:10;}
	.st4{fill:none;stroke:#0067C5;stroke-width:2;stroke-linecap:round;stroke-miterlimit:10;}
</style>
<path class="st0" d="M58.9,21v25.3c0,7-5.4,12.7-12,12.7H35c-6.6,0-12-5.7-12-12.7V21H58.9z"/>
<path class="st1" d="M34.9,11h12c6.6,0,12,5.4,12,12v24c0,6.6-5.4,12-12,12h-12c-6.6,0-12-5.4-12-12V23C22.9,16.4,28.3,11,34.9,11z"
	/>
<path class="st2" d="M58.9,47v-0.7c0,7-5.4,12.7-12,12.7H35c-6.6,0-12-5.7-12-12.7V47H58.9z"/>
<line class="st3" x1="40.9" y1="39" x2="41" y2="21"/>
<path class="st1" d="M12.9,39V8c0-1.7,1.3-3,3-3h22c1.7,0,3,1.3,3.1,3v13"/>
<line class="st3" x1="36.8" y1="31" x2="44.8" y2="31"/>
<line class="st3" x1="36.9" y1="25" x2="44.9" y2="25"/>
<line class="st3" x1="36.9" y1="37" x2="44.9" y2="37"/>
<path class="st0" d="M10.9,39h4c1.1,0,2,0.9,2,2v3.6c0,0.3,0,0.5,0.1,0.8l3.7,9.3c0.1,0.2,0.2,0.5,0.1,0.8V57c0,1.1-0.9,2-2,2h-12
	c-1.1,0-2-0.9-2-2v-1.6c0-0.3,0-0.5,0.1-0.8l3.7-9.3c0.1-0.2,0.2-0.5,0.1-0.8V41C8.9,39.9,9.8,39,10.9,39L10.9,39z"/>
<line class="st4" x1="56.9" y1="15" x2="59.9" y2="12"/>
<line class="st4" x1="53.9" y1="13" x2="56.9" y2="10"/>
</svg>
