<?xml version="1.0" encoding="utf-8"?>
<!-- Generator: Adobe Illustrator 22.1.0, SVG Export Plug-In . SVG Version: 6.00 Build 0)  -->
<svg version="1.1" id="Layer_1" xmlns="http://www.w3.org/2000/svg" xmlns:xlink="http://www.w3.org/1999/xlink" x="0px" y="0px"
	 width="64" height="64"
	 viewBox="0 0 64 64" style="enable-background:new 0 0 64 64;" xml:space="preserve">
<style type="text/css">
	.st0{fill:#96C3E5;}
	.st1{fill:#FFFFFF;stroke:#FFFFFF;stroke-width:2;stroke-miterlimit:10;}
	.st2{fill:none;stroke:#FFFFFF;stroke-width:1.5;stroke-linecap:round;stroke-miterlimit:10;}
</style>
<g id="V3-2">
	<path class="st0" d="M25.7,24.2H5.9c0.2-5.5,4.9-9.7,10.3-9.4C21.3,15,25.4,19.1,25.7,24.2z"/>
	<path class="st0" d="M41.3,23.8H26.1c1.4-4.2,5.9-6.5,10.1-5.1C38.6,19.5,40.5,21.4,41.3,23.8z"/>
	<path class="st1" d="M60.7,25.3v2.1c0,0.5-0.4,0.9-0.9,1l-16.2,1.8c-0.4,0-0.7,0.3-0.8,0.7L37,49.6c-0.2,0.4-0.6,0.7-1,0.7H11.5
		c-0.5,0-0.9-0.3-1-0.7l-7.4-24c-0.2-0.5,0.1-1.1,0.7-1.2c0.1,0,0.2-0.1,0.3,0h55.6C60.2,24.3,60.7,24.8,60.7,25.3z"/>
	<path class="st2" d="M10.4,19.1c1.4-1.5,3.3-2.3,5.3-2.3"/>
</g>
<g>
	<path class="st0" d="M20.4,46.2h-8c-0.6,0-1-0.4-1-1s0.4-1,1-1h8c0.6,0,1,0.4,1,1S21,46.2,20.4,46.2z"/>
</g>
<g>
	<path class="st0" d="M19.4,42.2h-8c-0.6,0-1-0.4-1-1s0.4-1,1-1h8c0.6,0,1,0.4,1,1S20,42.2,19.4,42.2z"/>
</g>
<g>
	<path class="st0" d="M18.4,38.2h-8c-0.6,0-1-0.4-1-1s0.4-1,1-1h8c0.6,0,1,0.4,1,1S19,38.2,18.4,38.2z"/>
</g>
</svg>
