<?xml version="1.0" encoding="UTF-8"?>
<svg width="30px" height="30px" viewBox="0 0 30 30" version="1.1" xmlns="http://www.w3.org/2000/svg" xmlns:xlink="http://www.w3.org/1999/xlink">
    <title>lkserver_badge_color_30x30_svg</title>
    <g id="lkserver_badge_color_30x30" stroke="none" stroke-width="1" fill="none" fill-rule="evenodd">
        <g id="LK-wTAG-COLOR">
            <g id="Group-26" fill="#215B84">
                <path d="M14.8347887,0.241714286 C6.64183099,0.241714286 0,6.97842857 0,15.2884286 C0,19.7931429 1.95464789,23.8328571 5.0471831,26.5902857 L10.7843662,10.4344286 L10.7843662,6.10842857 C10.1378873,5.805 9.69549296,5.14071429 9.69549296,4.39157143 C9.69549296,3.64242857 10.1514085,2.78057143 11.0898592,2.67471429 L14.8347887,2.67385714 L18.5797183,2.67471429 C19.518169,2.78057143 19.973662,3.64242857 19.973662,4.39157143 C19.973662,5.14071429 19.5312676,5.805 18.8847887,6.10842857 L18.8847887,10.4344286 L24.6219718,26.5902857 C27.7149296,23.8328571 29.6691549,19.7931429 29.6691549,15.2884286 C29.6691549,6.97842857 23.0277465,0.241714286 14.8347887,0.241714286" id="Fill-25"></path>
            </g>
            <path d="M12.2087324,12.7482857 L7.02,27.6235714 C9.22140845,29.022 12.0050704,30 14.8347887,30 C17.6640845,30 20.448169,29.022 22.6491549,27.6235714 L18.138169,14.4454286 L12.2087324,12.7482857" id="Fill-27" fill="#3988BC"></path>
        </g>
    </g>
</svg>