<?xml version="1.0" encoding="utf-8"?>
<!-- Generator: Adobe Illustrator 22.1.0, SVG Export Plug-In . SVG Version: 6.00 Build 0)  -->
<svg version="1.1" id="Layer_1" xmlns="http://www.w3.org/2000/svg" xmlns:xlink="http://www.w3.org/1999/xlink" x="0px" y="0px"
	 width="64" height="64"
	 viewBox="0 0 64 64" style="enable-background:new 0 0 64 64;" xml:space="preserve">
<style type="text/css">
	.st0{fill:none;stroke:#FFFFFF;stroke-width:3;stroke-linecap:round;stroke-miterlimit:10;}
	.st1{fill:#FFFFFF;}
</style>
<g id="V2-2">
	<line class="st0" x1="39.1" y1="40.5" x2="41" y2="47.5"/>
	<line class="st0" x1="44.2" y1="35" x2="47.9" y2="35.5"/>
	<line class="st0" x1="41" y1="21.2" x2="39.3" y2="24.1"/>
	<path class="st1" d="M46.1,46.3c3.4,2,4.6,6.4,2.6,9.8c-2,3.4-6.4,4.6-9.8,2.6c-3.4-2-4.6-6.4-2.6-9.8S42.6,44.3,46.1,46.3
		L46.1,46.3z"/>
	<path class="st1" d="M54,29.5c3.9-0.5,7.5,2.2,8.1,6.1s-2.2,7.5-6.1,8.1s-7.5-2.2-8.1-6.1c-0.2-1.6,0.1-3.2,0.9-4.5
		C49.9,31.1,51.8,29.8,54,29.5z"/>
	<circle class="st1" cx="42.7" cy="18.2" r="3.4"/>
	<path class="st1" d="M39,23.9l0.3,0.2c4.7,3,6.1,9.3,3.1,14c-2.8,4.4-8.5,6-13.2,3.6c-4.8-2.7-6.5-8.8-3.8-13.6
		c0-0.1,0.1-0.1,0.1-0.2C28.2,23.1,34.2,21.4,39,23.9z"/>
</g>
<g id="V2-3">
	<line class="st0" x1="15.7" y1="22.1" x2="11.9" y2="25.9"/>
	<line class="st0" x1="11.9" y1="15.7" x2="14.6" y2="16.7"/>
	<line class="st0" x1="21.7" y1="9" x2="21.7" y2="11.5"/>
	<path class="st1" d="M14.4,28.6c0,2.9-2.4,5.3-5.3,5.3c-1.8,0-3.5-1-4.5-2.5c-1.6-2.5-0.8-5.8,1.7-7.3s5.8-0.8,7.3,1.7
		C14.2,26.6,14.4,27.6,14.4,28.6z"/>
	<path class="st1" d="M12.3,13.7c0,2.9-2.4,5.3-5.3,5.3c-0.7,0-1.4-0.1-2-0.4c-2.7-1.1-4.1-4.2-3-6.9s4.2-4.1,6.9-3
		c0.5,0.2,0.9,0.5,1.4,0.8C11.5,10.5,12.3,12.1,12.3,13.7z"/>
	<circle class="st1" cx="21.7" cy="6.5" r="2.5"/>
	<path class="st1" d="M29.2,19c0,1.2-0.3,2.5-0.9,3.6c-1.3,2.4-3.9,4-6.6,3.9c-4.1,0-7.5-3.4-7.5-7.5s3.4-7.5,7.5-7.5h0.2
		C26,11.7,29.2,15,29.2,19z"/>
</g>
</svg>
