<?xml version="1.0" encoding="utf-8"?>
<!-- Generator: Adobe Illustrator 22.1.0, SVG Export Plug-In . SVG Version: 6.00 Build 0)  -->
<svg version="1.1" id="Layer_1" xmlns="http://www.w3.org/2000/svg" xmlns:xlink="http://www.w3.org/1999/xlink" x="0px" y="0px"
	 width="64" height="64"
	 viewBox="0 0 64 64" style="enable-background:new 0 0 64 64;" xml:space="preserve">
<style type="text/css">
	.st0{fill:#FFA500;}
	.st1{fill:none;stroke:#FFCC81;stroke-width:2;stroke-linecap:round;stroke-miterlimit:10;}
	.st2{fill:#FFCC81;}
</style>
<path class="st0" d="M31.1,9L4.9,54.5c-0.3,0.5-0.1,1.1,0.4,1.4c0,0,0,0,0,0C5.4,56,5.6,56,5.7,56h52.5c0.6,0,1-0.4,1-1
	c0-0.2,0-0.3-0.1-0.5L32.9,9c-0.3-0.5-0.9-0.6-1.4-0.4C31.3,8.7,31.2,8.8,31.1,9z"/>
<g id="V2">
	<g id="V2-2">
		<line class="st1" x1="32.6" y1="38.8" x2="25" y2="46.4"/>
		<line class="st1" x1="25" y1="25.9" x2="30.2" y2="28"/>
		<line class="st1" x1="44.5" y1="12.6" x2="44.5" y2="17.6"/>
		<path class="st2" d="M30,51.8c0,5.9-4.7,10.6-10.6,10.6S8.8,57.7,8.8,51.8s4.7-10.6,10.6-10.6h0l0,0c5.8,0,10.6,4.7,10.6,10.5
			c0,0,0,0,0,0V51.8z"/>
		<path class="st2" d="M25.8,22c0,5.8-4.7,10.6-10.5,10.6c0,0,0,0,0,0h-0.1C9.3,32.6,4.6,27.9,4.6,22c0-5.9,4.7-10.6,10.6-10.6
			C21,11.5,25.7,16.2,25.8,22z"/>
		<circle class="st2" cx="44.5" cy="7.6" r="5"/>
		<path class="st2" d="M59.5,32.6c0,8.3-6.7,15-15,15s-15-6.7-15-15s6.7-15,15-15H45C53.1,17.9,59.5,24.5,59.5,32.6z"/>
	</g>
</g>
</svg>
