<?xml version="1.0" encoding="utf-8"?>
<!-- Generator: Adobe Illustrator 22.1.0, SVG Export Plug-In . SVG Version: 6.00 Build 0)  -->
<svg version="1.1" id="Layer_1" xmlns="http://www.w3.org/2000/svg" xmlns:xlink="http://www.w3.org/1999/xlink" x="0px" y="0px"
	 width="64" height="64"
	 viewBox="0 0 64 64" style="enable-background:new 0 0 64 64;" xml:space="preserve">
<style type="text/css">
	.st0{fill:none;stroke:#808080;stroke-width:2;stroke-linecap:round;stroke-miterlimit:10;}
	.st1{fill:#D3D3D3;}
	.st2{fill:#808080;}
</style>
<g id="V2">
	<g id="V2-2">
		<line class="st0" x1="39.1" y1="40.4" x2="41" y2="47.4"/>
		<line class="st0" x1="44.2" y1="34.9" x2="47.9" y2="35.4"/>
		<line class="st0" x1="41" y1="21.1" x2="39.3" y2="24"/>
		<path class="st1" d="M46.1,46.2c3.4,2,4.6,6.4,2.6,9.8c-2,3.4-6.4,4.6-9.8,2.6c-3.4-2-4.6-6.4-2.6-9.8
			C38.3,45.4,42.6,44.2,46.1,46.2C46.1,46.2,46.1,46.2,46.1,46.2z"/>
		<path class="st2" d="M54,29.4c3.9-0.5,7.5,2.2,8.1,6.1s-2.2,7.5-6.1,8.1s-7.5-2.2-8.1-6.1c-0.2-1.6,0.1-3.2,0.9-4.5
			C49.9,31,51.8,29.7,54,29.4z"/>
		<circle class="st1" cx="42.7" cy="18.1" r="3.4"/>
		<path class="st1" d="M39,23.8l0.3,0.2c4.7,3,6.1,9.3,3.1,14c-2.8,4.4-8.5,6-13.2,3.6c-4.8-2.7-6.5-8.8-3.8-13.6c0,0,0,0,0,0
			l0.1-0.2C28.2,23,34.2,21.3,39,23.8z"/>
	</g>
	<g id="V2-3">
		<line class="st0" x1="15.7" y1="22" x2="11.9" y2="25.8"/>
		<line class="st0" x1="11.9" y1="15.6" x2="14.6" y2="16.6"/>
		<line class="st0" x1="21.7" y1="8.9" x2="21.7" y2="11.4"/>
		<path class="st1" d="M14.4,28.5c0,2.9-2.4,5.3-5.3,5.3c-2.9,0-5.3-2.4-5.3-5.3s2.4-5.3,5.3-5.3c1.8,0,3.5,0.9,4.5,2.5
			C14.2,26.5,14.4,27.5,14.4,28.5z"/>
		<path class="st2" d="M12.3,13.6c0,2.9-2.4,5.3-5.3,5.3c-0.7,0-1.4-0.1-2-0.4c-2.8-1-4.2-4.1-3.2-6.8s4.1-4.2,6.8-3.2
			c0.1,0,0.2,0.1,0.2,0.1c0.5,0.2,0.9,0.5,1.4,0.8C11.5,10.4,12.3,12,12.3,13.6z"/>
		<circle class="st1" cx="21.7" cy="6.4" r="2.5"/>
		<path class="st1" d="M29.2,18.9c0,4.1-3.4,7.5-7.5,7.5s-7.5-3.4-7.5-7.5s3.4-7.5,7.5-7.5h0.2C26,11.6,29.2,14.9,29.2,18.9z"/>
	</g>
</g>
</svg>
