<?xml version="1.0" encoding="utf-8"?>
<!-- Generator: Adobe Illustrator 23.0.4, SVG Export Plug-In . SVG Version: 6.00 Build 0)  -->
<svg version="1.1" id="Pie_-_Final" xmlns="http://www.w3.org/2000/svg" xmlns:xlink="http://www.w3.org/1999/xlink" x="0px"
	 y="0px" viewBox="0 0 64 64" style="enable-background:new 0 0 64 64;" xml:space="preserve">
<style type="text/css">
	.st0{fill:#96C3E5;}
	.st1{fill:#0067C5;}
</style>
<g>
	<path class="st0" d="M30,55c-0.6,0-1.3,0-1.9-0.1c-12.7-1-22.2-12-21.2-24.7C7.8,18.6,17.3,9.4,29,9v23.4L45.5,49
		C41.3,52.9,35.7,55,30,55z"/>
	<path class="st0" d="M28,10.1v22.7l0.6,0.6l15.5,15.5c-4,3.3-8.9,5.1-14.1,5.1c-0.6,0-1.2,0-1.8-0.1c-12.1-1-21.1-11.6-20.1-23.8
		c0.4-4.8,2.4-9.3,5.6-12.9C17.3,13.1,22.5,10.6,28,10.1 M29,8L29,8C15.8,8.5,5.5,19.7,6,32.9c0.5,12.1,9.9,22,22,23
		c0.7,0,1.3,0.1,2,0.1c6,0,11.8-2.3,16.2-6.3c0.4-0.4,0.4-1,0-1.4l0,0L30,32V9C30,8.4,29.6,8,29,8z"/>
	<path class="st1" d="M35.4,32L51,16.5c8.1,8.8,8.1,22.3,0,31.1L35.4,32z"/>
	<path class="st1" d="M50.9,17.9c6.8,8.2,6.8,20,0,28.2L36.8,32L50.9,17.9 M51,15.5c-0.3,0-0.5,0.1-0.7,0.3L34.7,31.3
		c-0.4,0.4-0.4,1,0,1.4l0,0l15.5,15.5c0.2,0.2,0.4,0.3,0.7,0.3c0.3,0,0.5-0.1,0.7-0.3c8.4-9.2,8.4-23.3,0-32.5
		C51.5,15.6,51.2,15.5,51,15.5L51,15.5z"/>
</g>
</svg>
