<?xml version="1.0" encoding="utf-8"?>
<!-- Generator: Adobe Illustrator 22.1.0, SVG Export Plug-In . SVG Version: 6.00 Build 0)  -->
<svg version="1.1" id="RawMaterials" xmlns="http://www.w3.org/2000/svg" xmlns:xlink="http://www.w3.org/1999/xlink" x="0px"
	 width="64" height="64"
	 y="0px" viewBox="0 0 64 64" style="enable-background:new 0 0 64 64;" xml:space="preserve">
<style type="text/css">
	.st0{fill:none;}
	.st1{fill:#FFFFFF;stroke:#FFFFFF;stroke-width:3;stroke-miterlimit:10;}
	.st2{fill:none;stroke:#FFFFFF;stroke-width:3;stroke-miterlimit:10;}
	.st3{fill:none;stroke:#FFFFFF;stroke-width:3;stroke-linecap:round;stroke-miterlimit:10;}
</style>
<path class="st0" d="M45.7,17.7c-0.1-0.4-0.5-0.7-0.9-0.7H19.2c-0.4,0-0.8,0.3-0.9,0.7L16,23.5V56c0,0.6,0.4,1,1,1h30.1
	c0.5-0.1,0.9-0.5,0.9-1.1V23.5L45.7,17.7z M44,49.8c0,1.7-1.3,3-3,3H23c-1.7,0-3-1.3-3-3V32c0-1.7,1.3-3,3-3h18c1.7,0,3,1.3,3,3
	V49.8z"/>
<path class="st1" d="M45.7,17.7c-0.1-0.4-0.5-0.7-0.9-0.7H19.2c-0.4,0-0.8,0.3-0.9,0.7L16,23.5V56c0,0.6,0.4,1,1,1h30.1
	c0.5-0.1,0.9-0.5,0.9-1.1V23.5L45.7,17.7z M44,51.8c0,0.6-0.4,1-1,1H21c-0.6,0-1-0.4-1-1V30c0-0.6,0.4-1,1-1h22c0.6,0,1,0.4,1,1
	V51.8z"/>
<path class="st2" d="M19,7h26c0.6,0,1,0.4,1,1v8c0,0.6-0.4,1-1,1H19c-0.6,0-1-0.4-1-1V8C18,7.4,18.4,7,19,7z"/>
<line class="st2" x1="24" y1="7" x2="24" y2="17"/>
<line class="st2" x1="40" y1="7" x2="40" y2="17"/>
<line class="st2" x1="32" y1="7" x2="32" y2="17"/>
<line class="st3" x1="24" y1="34.8" x2="40" y2="34.8"/>
<line class="st3" x1="24" y1="40.8" x2="40" y2="40.8"/>
<line class="st3" x1="24" y1="46.8" x2="40" y2="46.8"/>
</svg>
