<?xml version="1.0" encoding="UTF-8"?>
<svg width="64px" height="64px" viewBox="0 0 64 64" version="1.1" xmlns="http://www.w3.org/2000/svg" xmlns:xlink="http://www.w3.org/1999/xlink">
    <title>Icons / Gray / Sample Type</title>
    <g id="Icons-/-Gray-/-Sample-Set" stroke="none" stroke-width="1" fill="none" fill-rule="evenodd">
        <g id="Folder-Body" transform="translate(3.500000, 5.000000)" stroke="#808080" stroke-width="2">
            <path d="M0.5,6 L0.5,2 C0.5,0.8954305 1.3954305,2.02906125e-16 2.5,0 L19.6715729,0 C20.2020059,-9.74389576e-17 20.7107137,0.210713681 21.0857864,0.585786438 L28.5,8 L2.5,8 C1.3954305,8 0.5,7.1045695 0.5,6 Z" id="Path-3" fill="#D3D3D3"></path>
            <path d="M0.5,10 L0.5,53 C0.5,54.1045695 1.3954305,55 2.5,55 L54.5,55 C55.6045695,55 56.5,54.1045695 56.5,53 L56.5,10 C56.5,8.8954305 55.6045695,8 54.5,8 L2.5,8 C1.3954305,8 0.5,8.8954305 0.5,10 Z" id="Path-4" fill="#D3D3D3"></path>
            <path d="M0.5,5 L0.5,13" id="Path-5"></path>
            <path d="M22.5,8 L24.2573593,8 C25.2279221,8 26.0147186,7.21320344 26.0147186,6.24264069 C26.0147186,5.77656002 25.8295688,5.3295688 25.5,5 L25.5,5" id="Path-6"></path>
            <path d="M24.5,8 L29.6715729,8 C30.2020059,8 30.7107137,7.78928632 31.0857864,7.41421356 L34.5,4" id="Path-6" transform="translate(29.500000, 6.000000) scale(-1, 1) translate(-29.500000, -6.000000) "></path>
        </g>
        <g id="100%" transform="translate(32.500000, 36.000000) rotate(15.000000) translate(-32.500000, -36.000000) translate(17.000000, 14.000000)">
            <path d="M25.7609848,8.43765 L17.9011364,37.4064 C17.0488636,40.4064 13.9238636,42.18765 10.9882576,41.3439 L9.18901515,40.87515 C6.15871212,40.0314 4.3594697,36.93765 5.21174242,34.0314 L13.0715909,5.06265 L25.7609848,8.43765 Z" id="Stroke-1" stroke="#FFFFFF" stroke-width="2" transform="translate(15.380477, 23.308102) rotate(-15.000000) translate(-15.380477, -23.308102) "></path>
            <path d="M5,3 L25.1704545,8.34375" id="Stroke-3" stroke="#FFFFFF" stroke-width="2" stroke-linecap="round" transform="translate(15.085227, 5.671875) rotate(-14.838457) translate(-15.085227, -5.671875) "></path>
            <path d="M13.3443182,14.3439 C14.0768939,14.3439 14.6700758,14.93115 14.6700758,15.6564 C14.6700758,16.3809 14.0768939,16.9689 13.3443182,16.9689 C12.6117424,16.9689 12.0185606,16.3809 12.0185606,15.6564 C12.0185606,14.93115 12.6117424,14.3439 13.3443182,14.3439" id="Fill-5" fill="#FFFFFF" transform="translate(13.344318, 15.656400) rotate(-15.000000) translate(-13.344318, -15.656400) "></path>
            <path d="M17.6056818,11.3439 C18.3382576,11.3439 18.9314394,11.93115 18.9314394,12.6564 C18.9314394,13.3809 18.3382576,13.9689 17.6056818,13.9689 C16.8731061,13.9689 16.2799242,13.3809 16.2799242,12.6564 C16.2799242,11.93115 16.8731061,11.3439 17.6056818,11.3439" id="Fill-7" fill="#FFFFFF" transform="translate(17.605682, 12.656400) rotate(-15.000000) translate(-17.605682, -12.656400) "></path>
            <g id="Group-13" transform="translate(8.030303, 19.553375)">
                <path d="M9.69280303,1.446775 C8.8405303,2.384275 7.70416667,2.946775 6.47310606,3.040525 C6.09431818,3.040525 5.81022727,3.321775 5.62083333,3.696775 L2.68522727,14.853025 C2.30643939,16.165525 2.87462121,17.571775 4.10568182,18.228025 C5.7155303,19.071775 7.70416667,18.134275 8.08295455,16.446775 L11.4920455,3.790525 C11.6814394,3.040525 11.5867424,2.290525 11.2079545,1.634275 C10.9238636,0.978025 10.0715909,0.978025 9.69280303,1.446775" id="Fill-9" fill="#FFFFFF" transform="translate(7.077976, 9.829413) rotate(-15.000000) translate(-7.077976, -9.829413) "></path>
                <path d="M9.69280303,1.446775 C8.8405303,2.384275 7.70416667,2.946775 6.47310606,3.040525 C6.09431818,3.040525 5.81022727,3.321775 5.62083333,3.696775 L2.68522727,14.853025 C2.30643939,16.165525 2.87462121,17.571775 4.10568182,18.228025 C5.7155303,19.071775 7.70416667,18.134275 8.08295455,16.446775 L11.4920455,3.790525 C11.6814394,3.040525 11.5867424,2.290525 11.2079545,1.634275 C10.9238636,0.978025 10.0715909,0.978025 9.69280303,1.446775 Z" id="Stroke-11" stroke="#FFFFFF" stroke-width="1.5" stroke-linecap="round" transform="translate(7.077976, 9.829413) rotate(-15.000000) translate(-7.077976, -9.829413) "></path>
            </g>
        </g>
    </g>
</svg>