<?xml version="1.0" encoding="utf-8"?>
<!-- Generator: Adobe Illustrator 22.1.0, SVG Export Plug-In . SVG Version: 6.00 Build 0)  -->
<svg version="1.1" id="Layer_1" xmlns="http://www.w3.org/2000/svg" xmlns:xlink="http://www.w3.org/1999/xlink" x="0px" y="0px"
	 width="64" height="64"
	 viewBox="0 0 64 64" style="enable-background:new 0 0 64 64;" xml:space="preserve" >
<style type="text/css">
	.st0{fill:none;stroke:#0067C5;stroke-width:2;stroke-miterlimit:10;}
	.st1{fill:none;stroke:#0067C5;stroke-width:2;stroke-linecap:round;stroke-miterlimit:10;}
	.st2{fill:#96C3E5;enable-background:new    ;}
	.st3{fill:#96C3E5;stroke:#96C3E5;stroke-width:2;stroke-linecap:round;stroke-miterlimit:10;enable-background:new    ;}
</style>
<title>samples</title>
<g id="V2">
	<path class="st0" d="M45.6,13.7L35.2,52.3c-1.1,4-5.2,6.3-9.1,5.2L23.7,57c-4-1.1-6.3-5.2-5.2-9.1L28.8,9.2L45.6,13.7z"/>
	<line class="st1" x1="24.5" y1="6.5" x2="51.1" y2="13.6"/>
	<circle class="st2" cx="31.8" cy="23.3" r="1.8"/>
	<circle class="st2" cx="37.5" cy="19.3" r="1.8"/>
	<path class="st3" d="M32.3,30.5c-1.1,1.2-2.6,2-4.2,2.1c-0.5,0.1-0.9,0.4-1.1,0.9l-3.9,14.9c-0.5,1.8,0.3,3.6,1.9,4.5
		c1.8,0.9,4,0.3,4.9-1.5c0.1-0.3,0.2-0.6,0.3-0.8l4.5-16.9c0.3-1,0.1-2-0.4-2.9c-0.3-0.6-0.9-0.9-1.5-0.6
		C32.6,30.2,32.5,30.3,32.3,30.5z"/>
</g>
</svg>
