<?xml version="1.0" encoding="UTF-8"?>
<svg width="64px" height="64px" viewBox="0 0 64 64" version="1.1" xmlns="http://www.w3.org/2000/svg" xmlns:xlink="http://www.w3.org/1999/xlink">
    <!-- Generator: Sketch 63 (92445) - https://sketch.com -->
    <title>source_icon_blue_64x64_svg</title>
    <desc>Created with Sketch.</desc>
    <g id="source_icon_blue_64x64" stroke="none" stroke-width="1" fill="none" fill-rule="evenodd">
        <g id="Icon" transform="translate(5.000000, 5.000000)">
            <rect id="Background" stroke="#0067C5" stroke-width="2" x="0" y="0" width="54" height="54" rx="2"></rect>
            <line x1="36.3169115" y1="50.0266132" x2="17.6785714" y2="49.616244" id="Base" stroke="#0067C5" stroke-width="2" stroke-linecap="round" transform="translate(26.997741, 49.821429) rotate(178.738695) translate(-26.997741, -49.821429) "></line>
            <g id="Left-Node" transform="translate(3.214286, 22.857143)">
                <line x1="23.7857143" y1="24.1428571" x2="12.7857143" y2="13.1428571" id="Path" stroke="#99C9E8" stroke-width="2"></line>
                <circle id="Oval" fill="#99C9E8" cx="8.78571429" cy="8.14285714" r="8"></circle>
            </g>
            <g id="Right-Node" transform="translate(39.000000, 28.500000) scale(-1, 1) translate(-39.000000, -28.500000) translate(27.000000, 16.000000)" stroke="#99C9E8" stroke-width="2">
                <line x1="23.7857143" y1="24.1428571" x2="12.7857143" y2="13.1428571" id="Path"></line>
                <circle id="Oval" cx="8.78571429" cy="8.14285714" r="7"></circle>
            </g>
            <line x1="27" y1="19" x2="27" y2="49" id="Main-Branch" stroke="#0067C5" stroke-width="2" stroke-linecap="round" transform="translate(27.000000, 34.000000) scale(-1, 1) translate(-27.000000, -34.000000) "></line>
            <path d="M35,11 C35,15.3773585 31.4528302,19 27.0754717,19 L27,19 C22.5471698,19 19,15.4528302 19,11 C19,6.54716981 22.5471698,3 27,3 C31.3773585,3.0754717 34.9245283,6.62264151 35,11" id="Top-Node" fill="#0067C5"></path>
        </g>
    </g>
</svg>