<?xml version="1.0" encoding="UTF-8"?>
<svg xmlns:xlink="http://www.w3.org/1999/xlink" width="64px" height="64px" viewBox="0 0 64 64" version="1.1" xmlns="http://www.w3.org/2000/svg">
    <!-- Generator: Sketch 62 (91390) - https://sketch.com -->
    <title>source_icon_blue_64x64_svg</title>
    <desc>Created with Sketch.</desc>
    <g id="source_icon_blue_64x64" stroke="none" stroke-width="1" fill="none" fill-rule="evenodd">
        <g id="Icon" transform="translate(3.000000, 3.000000)">
            <rect id="Background" stroke="#0067C5" stroke-width="2" x="0" y="0" width="58" height="58" rx="2"></rect>
            <line x1="38.3169115" y1="53.0266132" x2="19.6785714" y2="52.616244" id="Base" stroke="#0067C5" stroke-width="2" stroke-linecap="round" transform="translate(28.997741, 52.821429) rotate(178.738695) translate(-28.997741, -52.821429) "></line>
            <g id="Left-Node" transform="translate(6.214286, 24.857143)">
                <path d="M16.5714286,8.28571429 C16.5714286,12.819407 12.8975741,16.5714286 8.3638814,16.5714286 L8.28571429,16.5714286 C3.67385445,16.5714286 0,12.8975741 0,8.28571429 C0,3.67385445 3.67385445,0 8.28571429,0 C12.819407,0.0781671159 16.4932615,3.75202156 16.5714286,8.28571429" id="Node" fill="#99C9E8"></path>
                <line x1="18.0298618" y1="11.2430407" x2="17.9688318" y2="24.8419624" id="Left-Branch" stroke="#99C9E8" stroke-width="2" stroke-linecap="round" transform="translate(17.999347, 18.042502) rotate(-45.000000) translate(-17.999347, -18.042502) "></line>
            </g>
            <g id="Right-Node" transform="translate(39.958333, 28.812500) scale(-1, 1) translate(-39.958333, -28.812500) translate(27.958333, 16.312500)" stroke="#99C9E8" stroke-width="2">
                <line x1="18.1560657" y1="12.9610994" x2="18.6106344" y2="24.9903326" id="Left-Branch" stroke-linecap="round" transform="translate(18.141149, 18.891411) rotate(-43.000000) translate(-18.141149, -18.891411) "></line>
                <path d="M16.5714286,8.28571429 C16.5714286,12.819407 12.8975741,16.5714286 8.3638814,16.5714286 L8.28571429,16.5714286 C3.67385445,16.5714286 0,12.8975741 0,8.28571429 C0,3.67385445 3.67385445,0 8.28571429,0 C12.819407,0.0781671159 16.4932615,3.75202156 16.5714286,8.28571429" id="Node" fill="#FFFFFF"></path>
            </g>
            <line x1="29" y1="15.5357143" x2="29" y2="52.8214286" id="Main-Branch" stroke="#0067C5" stroke-width="2" stroke-linecap="round" transform="translate(29.000000, 34.178571) scale(-1, 1) translate(-29.000000, -34.178571) "></line>
            <path d="M37.2857143,10.3571429 C37.2857143,14.8908356 33.6118598,18.6428571 29.0781671,18.6428571 L29,18.6428571 C24.3881402,18.6428571 20.7142857,14.9690027 20.7142857,10.3571429 C20.7142857,5.74528302 24.3881402,2.07142857 29,2.07142857 C33.5336927,2.14959569 37.2075472,5.82345013 37.2857143,10.3571429" id="Top-Node" fill="#0067C5"></path>
        </g>
    </g>
</svg>