<?xml version="1.0" encoding="UTF-8"?>
<svg width="64px" height="64px" viewBox="0 0 64 64" version="1.1" xmlns="http://www.w3.org/2000/svg" xmlns:xlink="http://www.w3.org/1999/xlink">
    <!-- Generator: Sketch 63.1 (92452) - https://sketch.com -->
    <title>moved_orange_svg</title>
    <desc>Created with Sketch.</desc>
    <g id="moved_orange" stroke="none" stroke-width="1" fill="none" fill-rule="evenodd">
        <g transform="translate(1.000000, 7.000000)" stroke-width="2">
            <g id="Box-2" transform="translate(32.000000, 20.000000)" stroke="#FFA500">
                <path d="M2.84241853,3.75251647 L9.96986365,0.216102133 C10.2448355,0.0796697415 10.5672334,0.077082202 10.8443597,0.209083498 L28.143146,8.4488732 C28.6417566,8.68637235 28.8534293,9.28310727 28.6159302,9.78171793 C28.5196168,9.98392037 28.3582119,10.147937 28.1575815,10.2474835 L21.0301363,13.7838979 C20.7551645,13.9203303 20.4327666,13.9229178 20.1556403,13.7909165 L2.85685404,5.5511268 C2.35824337,5.31362765 2.14657066,4.71689273 2.38406981,4.21828207 C2.48038325,4.01607963 2.64178806,3.85206301 2.84241853,3.75251647 Z" id="Path-4" fill="#FFCC81"></path>
                <path d="M1.84241853,3.75251647 L8.96986365,0.216102133 C9.2448355,0.0796697415 9.56723339,0.077082202 9.84435966,0.209083498 L27.143146,8.4488732 C27.6417566,8.68637235 27.8534293,9.28310727 27.6159302,9.78171793 C27.5196168,9.98392037 27.3582119,10.147937 27.1575815,10.2474835 L20.0301363,13.7838979 C19.7551645,13.9203303 19.4327666,13.9229178 19.1556403,13.7909165 L1.85685404,5.5511268 C1.35824337,5.31362765 1.14657066,4.71689273 1.38406981,4.21828207 C1.48038325,4.01607963 1.64178806,3.85206301 1.84241853,3.75251647 Z" id="Path-4" fill="#FFFFFF" transform="translate(14.500000, 7.000000) scale(-1, 1) translate(-14.500000, -7.000000) "></path>
                <path d="M0,11.6666667 L9.47368421,7 L12.9838698,8.48207835 C13.4926619,8.69690167 13.7309706,9.28350786 13.5161473,9.79229995 C13.4226327,10.0137819 13.2524561,10.1941605 13.0367875,10.3003973 L5.93622223,13.7980831 C5.67589619,13.9263178 5.37270351,13.9351415 5.10536047,13.8222633 L0,11.6666667 L0,11.6666667 Z" id="Path-4" fill="#FFCC81" transform="translate(7.500000, 10.500000) scale(-1, 1) translate(-7.500000, -10.500000) "></path>
                <path d="M16.7888544,3.77223948 L23.8861197,0.223606798 C24.1676472,0.0828430524 24.4990194,0.0828430524 24.7805469,0.223606798 L29,2.33333333 L29,2.33333333 L20.1138803,6.7763932 C19.8323528,6.91715695 19.5009806,6.91715695 19.2194531,6.7763932 L16.7888544,5.56109386 C16.2948759,5.31410461 16.0946515,4.71343157 16.3416408,4.21945307 C16.4384045,4.02592567 16.595327,3.86900318 16.7888544,3.77223948 Z" id="Path-4" fill="#FFCC81" transform="translate(22.000000, 3.500000) scale(-1, 1) translate(-22.000000, -3.500000) "></path>
                <path d="M2.84241853,3.75251647 L9.96986365,0.216102133 C10.2448355,0.0796697415 10.5672334,0.077082202 10.8443597,0.209083498 L28.143146,8.4488732 C28.6417566,8.68637235 28.8534293,9.28310727 28.6159302,9.78171793 C28.5196168,9.98392037 28.3582119,10.147937 28.1575815,10.2474835 L21.0301363,13.7838979 C20.7551645,13.9203303 20.4327666,13.9229178 20.1556403,13.7909165 L2.85685404,5.5511268 C2.35824337,5.31362765 2.14657066,4.71689273 2.38406981,4.21828207 C2.48038325,4.01607963 2.64178806,3.85206301 2.84241853,3.75251647 Z" id="Path-4"></path>
                <path d="M5,12 L5,23.7145701 C5,24.1093473 5.23225493,24.4671766 5.59282472,24.6279201 L14.9759794,28.8109699 C15.2448776,28.9308458 15.552937,28.9261384 15.8180469,28.7981024 L24.4348921,24.6365578 C24.7804276,24.4696798 25,24.1197978 25,23.7360752 L25,12.7727273 L25,12.7727273 L21.3732094,14.1739873 C21.133635,14.2665501 20.8676309,14.2633862 20.6303259,14.1651511 L15.4,12 L15.4,12 L10.2139478,14.1468236 C9.95059357,14.2558419 9.65323326,14.2473002 9.39657135,14.1233441 L5,12 L5,12 Z" id="Path-5" fill="#FFFFFF"></path>
                <path d="M15,13.5192559 L15,27.434112 C15,27.9863967 14.5522847,28.434112 14,28.434112 C13.8547171,28.434112 13.7111789,28.4024557 13.5793734,28.3413458 L5.5793734,24.6322549 C5.22607322,24.4684521 5,24.1144468 5,23.7250211 L5,13.621325 C5,13.0690402 5.44771525,12.621325 6,12.621325 C6.15585885,12.621325 6.30956007,12.6577563 6.44883761,12.7277116 L9.19904706,14.1090668 C9.46298527,14.2416358 9.77202751,14.250744 10.0433151,14.1339494 L13.6045696,12.60076 C14.1118409,12.3823698 14.7001058,12.6165542 14.9184959,13.1238255 C14.9722668,13.2487232 15,13.3832753 15,13.5192559 Z" id="Path-11" fill="#FFFFFF"></path>
            </g>
            <g id="Box-1" transform="translate(0.000000, 20.000000)">
                <path d="M2.84241853,3.75251647 L9.96986365,0.216102133 C10.2448355,0.0796697415 10.5672334,0.077082202 10.8443597,0.209083498 L28.143146,8.4488732 C28.6417566,8.68637235 28.8534293,9.28310727 28.6159302,9.78171793 C28.5196168,9.98392037 28.3582119,10.147937 28.1575815,10.2474835 L21.0301363,13.7838979 C20.7551645,13.9203303 20.4327666,13.9229178 20.1556403,13.7909165 L2.85685404,5.5511268 C2.35824337,5.31362765 2.14657066,4.71689273 2.38406981,4.21828207 C2.48038325,4.01607963 2.64178806,3.85206301 2.84241853,3.75251647 Z" id="Path-4" stroke="#0067C5" fill="#FFCC81"></path>
                <path d="M1.84241853,3.75251647 L8.96986365,0.216102133 C9.2448355,0.0796697415 9.56723339,0.077082202 9.84435966,0.209083498 L27.143146,8.4488732 C27.6417566,8.68637235 27.8534293,9.28310727 27.6159302,9.78171793 C27.5196168,9.98392037 27.3582119,10.147937 27.1575815,10.2474835 L20.0301363,13.7838979 C19.7551645,13.9203303 19.4327666,13.9229178 19.1556403,13.7909165 L1.85685404,5.5511268 C1.35824337,5.31362765 1.14657066,4.71689273 1.38406981,4.21828207 C1.48038325,4.01607963 1.64178806,3.85206301 1.84241853,3.75251647 Z" id="Path-4" stroke="#FFA500" fill="#FFFFFF" transform="translate(14.500000, 7.000000) scale(-1, 1) translate(-14.500000, -7.000000) "></path>
                <path d="M0,11.6666667 L9.47368421,7 L12.9838698,8.48207835 C13.4926619,8.69690167 13.7309706,9.28350786 13.5161473,9.79229995 C13.4226327,10.0137819 13.2524561,10.1941605 13.0367875,10.3003973 L5.93622223,13.7980831 C5.67589619,13.9263178 5.37270351,13.9351415 5.10536047,13.8222633 L0,11.6666667 L0,11.6666667 Z" id="Path-4" stroke="#FFA500" fill="#FFCC81" transform="translate(7.500000, 10.500000) scale(-1, 1) translate(-7.500000, -10.500000) "></path>
                <path d="M16.7888544,3.77223948 L23.8861197,0.223606798 C24.1676472,0.0828430524 24.4990194,0.0828430524 24.7805469,0.223606798 L29,2.33333333 L29,2.33333333 L20.1138803,6.7763932 C19.8323528,6.91715695 19.5009806,6.91715695 19.2194531,6.7763932 L16.7888544,5.56109386 C16.2948759,5.31410461 16.0946515,4.71343157 16.3416408,4.21945307 C16.4384045,4.02592567 16.595327,3.86900318 16.7888544,3.77223948 Z" id="Path-4" stroke="#FFA500" fill="#FFCC81" transform="translate(22.000000, 3.500000) scale(-1, 1) translate(-22.000000, -3.500000) "></path>
                <path d="M2.84241853,3.75251647 L9.96986365,0.216102133 C10.2448355,0.0796697415 10.5672334,0.077082202 10.8443597,0.209083498 L28.143146,8.4488732 C28.6417566,8.68637235 28.8534293,9.28310727 28.6159302,9.78171793 C28.5196168,9.98392037 28.3582119,10.147937 28.1575815,10.2474835 L21.0301363,13.7838979 C20.7551645,13.9203303 20.4327666,13.9229178 20.1556403,13.7909165 L2.85685404,5.5511268 C2.35824337,5.31362765 2.14657066,4.71689273 2.38406981,4.21828207 C2.48038325,4.01607963 2.64178806,3.85206301 2.84241853,3.75251647 Z" id="Path-4" stroke="#FFA500"></path>
                <path d="M5,12 L5,23.7145701 C5,24.1093473 5.23225493,24.4671766 5.59282472,24.6279201 L14.9759794,28.8109699 C15.2448776,28.9308458 15.552937,28.9261384 15.8180469,28.7981024 L24.4348921,24.6365578 C24.7804276,24.4696798 25,24.1197978 25,23.7360752 L25,12.7727273 L25,12.7727273 L21.3732094,14.1739873 C21.133635,14.2665501 20.8676309,14.2633862 20.6303259,14.1651511 L15.4,12 L15.4,12 L10.2139478,14.1468236 C9.95059357,14.2558419 9.65323326,14.2473002 9.39657135,14.1233441 L5,12 L5,12 Z" id="Path-5" stroke="#FFA500" fill="#FFCC81"></path>
                <path d="M15,13.5192559 L15,27.434112 C15,27.9863967 14.5522847,28.434112 14,28.434112 C13.8547171,28.434112 13.7111789,28.4024557 13.5793734,28.3413458 L5.5793734,24.6322549 C5.22607322,24.4684521 5,24.1144468 5,23.7250211 L5,13.621325 C5,13.0690402 5.44771525,12.621325 6,12.621325 C6.15585885,12.621325 6.30956007,12.6577563 6.44883761,12.7277116 L9.19904706,14.1090668 C9.46298527,14.2416358 9.77202751,14.250744 10.0433151,14.1339494 L13.6045696,12.60076 C14.1118409,12.3823698 14.7001058,12.6165542 14.9184959,13.1238255 C14.9722668,13.2487232 15,13.3832753 15,13.5192559 Z" id="Path-11" stroke="#FFA500" fill="#FFCC81"></path>
            </g>
            <path d="M23.1035145,17.4976125 L30.8006422,24.9239699 C30.9046575,25.0253434 31.1126879,25.0253434 31.2177433,24.9239699 L38.913831,17.4976125 C39.1218614,17.296873 38.913831,17.0961336 38.7058005,17.0961336 L33.2980481,17.0961336 C33.1929927,17.0961336 33.0900177,16.9957638 33.0900177,16.8943904 L33.0900177,-8.79926051 C33.0900177,-8.90063395 32.9849623,-9 32.880947,-9 L29.1374385,-9 C29.0323831,-9 28.9294081,-8.90063395 28.9294081,-8.79926051 L28.9294081,16.7950243 C28.9294081,16.8943904 28.8243527,16.9957638 28.7203374,16.9957638 L23.4166003,16.9957638 C22.9994992,17.0961336 22.8965241,17.296873 23.1035145,17.4976125 Z" id="Arrow-Right" stroke="#FFA500" fill="#FFCC81" transform="translate(31.000000, 8.000000) scale(-1, 1) rotate(90.000000) translate(-31.000000, -8.000000) "></path>
        </g>
    </g>
</svg>