<?xml version="1.0" encoding="UTF-8"?>
<svg width="64px" height="64px" viewBox="0 0 64 64" version="1.1" xmlns="http://www.w3.org/2000/svg" xmlns:xlink="http://www.w3.org/1999/xlink">
    <!-- Generator: Sketch 63.1 (92452) - https://sketch.com -->
    <title>Icon / Terminal / Orange_svg</title>
    <desc>Created with Sketch.</desc>
    <g id="Icon-/-Terminal-/-Orange" stroke="none" stroke-width="1" fill="none" fill-rule="evenodd">
        <g id="Add_to_blue" transform="translate(11.000000, 11.000000)" stroke="#FFA500" stroke-width="2">
            <g id="Box">
                <path d="M2.76625621,6.09234056 L14.1737319,0.230165565 C14.4554721,0.0853823867 14.7891487,0.0826467082 15.073225,0.222790988 L41.2190992,13.1214223 C41.7143914,13.3657664 41.917825,13.9653602 41.6734808,14.4606524 C41.5786162,14.6529455 41.4244557,14.8096547 41.2337438,14.9076594 L29.8262681,20.7698344 C29.5445279,20.9146176 29.2108513,20.9173533 28.926775,20.777209 L2.78090084,7.87857775 C2.28560863,7.63423359 2.08217504,7.03463984 2.3265192,6.53934763 C2.42138382,6.34705448 2.57554432,6.19034528 2.76625621,6.09234056 Z" id="Path-4" fill="#FFCC81"></path>
                <path d="M2.76625621,6.09234056 L14.1820588,0.225886435 C14.4591074,0.0835142756 14.7866769,0.0783727305 15.0680572,0.211979766 L40.362509,12.2224747 C40.8614088,12.4593659 41.0738087,13.0558423 40.8369175,13.5547421 C40.7559497,13.7252627 40.6283709,13.8693837 40.4689328,13.9704409 L29.8526188,20.6994108 C29.5580843,20.8860965 29.187571,20.9058684 28.8748413,20.7515884 L2.78090084,7.87857775 C2.28560863,7.63423359 2.08217504,7.03463984 2.3265192,6.53934763 C2.42138382,6.34705448 2.57554432,6.19034528 2.76625621,6.09234056 Z" id="Path-4" fill="#FFFFFF" transform="translate(21.500000, 10.500000) scale(-1, 1) translate(-21.500000, -10.500000) "></path>
                <path d="M0,16.6666667 L13.8947368,10 L19.9221215,12.4787946 C20.4328987,12.6888544 20.6766782,13.2732083 20.4666183,13.7839854 C20.3725972,14.0126053 20.19723,14.1982987 19.9743575,14.3052325 L8.50655407,19.8074614 C8.2511069,19.9300245 7.95565849,19.9384743 7.69362401,19.8307112 L0,16.6666667 L0,16.6666667 Z" id="Path-4" fill="#FFCC81" transform="translate(11.000000, 15.000000) scale(-1, 1) translate(-11.000000, -15.000000) "></path>
                <path d="M22.8960071,5.76380615 L34.5700664,0.204730276 C34.842057,0.0752109681 35.157943,0.0752109681 35.4299336,0.204730276 L42,3.33333333 L42,3.33333333 L28.4299336,9.79526972 C28.157943,9.92478903 27.842057,9.92478903 27.5700664,9.79526972 L22.8960071,7.56952719 C22.397371,7.33208143 22.1856344,6.73536918 22.4230802,6.23673309 C22.5217704,6.02948354 22.6887575,5.86249641 22.8960071,5.76380615 Z" id="Path-4" fill="#FFCC81" transform="translate(31.500000, 5.000000) scale(-1, 1) translate(-31.500000, -5.000000) "></path>
                <path d="M2.76625621,6.09234056 L14.1737319,0.230165565 C14.4554721,0.0853823867 14.7891487,0.0826467082 15.073225,0.222790988 L41.2190992,13.1214223 C41.7143914,13.3657664 41.917825,13.9653602 41.6734808,14.4606524 C41.5786162,14.6529455 41.4244557,14.8096547 41.2337438,14.9076594 L29.8262681,20.7698344 C29.5445279,20.9146176 29.2108513,20.9173533 28.926775,20.777209 L2.78090084,7.87857775 C2.28560863,7.63423359 2.08217504,7.03463984 2.3265192,6.53934763 C2.42138382,6.34705448 2.57554432,6.19034528 2.76625621,6.09234056 Z" id="Path-4"></path>
                <path d="M7,17 L7,34.5458863 C7,34.9339316 7.22449152,35.2869435 7.57591384,35.4515081 L21.1183794,41.7931972 C21.397106,41.9237197 21.720409,41.9186237 21.9948834,41.7793814 L34.4524179,35.4596094 C34.7883379,35.2891955 35,34.9444772 35,34.5678034 L35,18.1363636 L35,18.1363636 L29.7894152,20.251049 C29.5403555,20.3521285 29.2610903,20.3486884 29.014596,20.2415045 L21.56,17 L21.56,17 L14.1515316,20.2214467 C13.8782179,20.3402926 13.566138,20.3310359 13.3003487,20.1961996 L7,17 L7,17 Z" id="Path-5" fill="#FFFFFF"></path>
                <path d="M22,18.507504 L22,40.4469958 C22,40.9992806 21.5522847,41.4469958 21,41.4469958 C20.8572491,41.4469958 20.7161527,41.416433 20.5861971,41.3573623 L7.58619706,35.4482714 C7.22920277,35.2860013 7,34.9300484 7,34.5379049 L7,18.6070908 C7,18.0548061 7.44771525,17.6070908 8,17.6070908 C8.15319167,17.6070908 8.30433546,17.6422864 8.44176819,17.7099616 L13.513283,20.2072984 C13.7735456,20.3354581 14.0766365,20.3442768 14.3439104,20.2314664 L20.6111408,17.5862068 C21.1199592,17.3714458 21.7065362,17.6098264 21.9212972,18.1186448 C21.9732391,18.2417073 22,18.3739288 22,18.507504 Z" id="Path-11" fill="#FFFFFF"></path>
            </g>
        </g>
    </g>
</svg>