<?xml version="1.0" encoding="utf-8"?>
<!-- Generator: Adobe Illustrator 22.1.0, SVG Export Plug-In . SVG Version: 6.00 Build 0)  -->
<svg version="1.1" id="Layer_1" xmlns="http://www.w3.org/2000/svg" xmlns:xlink="http://www.w3.org/1999/xlink" x="0px" y="0px"
	 width="64" height="64"
	 viewBox="0 0 64 64" style="enable-background:new 0 0 64 64;" xml:space="preserve">
<style type="text/css">
	.st0{fill:#FFCC81;stroke:#FFCC81;stroke-width:2;stroke-miterlimit:10;}
</style>
<path class="st0" d="M29.6,58.9C17.5,57.8,7.8,48.3,6.3,36.2l5-2.5l4.2,2.1l0,0c1.2,7,6.5,12.5,13.5,13.8L27,53.5L29.6,58.9z"/>
<path class="st0" d="M58,35.2c-1,12.1-10.3,21.9-22.4,23.6L33,53.5l1.9-3.9c7.1-1.2,12.6-6.8,13.8-13.9l4.1,2L58,35.2z"/>
<path class="st0" d="M57.8,29.3l-5,2.5l-4.2-2.1l0,0c-1.4-6.9-6.8-12.2-13.7-13.4l2.2-4.4l-2.4-4.9C46.5,8.3,56.1,17.4,57.8,29.3z"
	/>
<path class="st0" d="M31.1,12l-2.2,4.5c-6.8,1.3-12,6.6-13.3,13.4l-4.3-2.1l-5,2.5c1.3-11.9,10.6-21.4,22.5-23L31.1,12z"/>
</svg>
