<?xml version="1.0" encoding="utf-8"?>
<!-- Generator: Adobe Illustrator 22.1.0, SVG Export Plug-In . SVG Version: 6.00 Build 0)  -->
<svg version="1.1" id="Layer_1" xmlns="http://www.w3.org/2000/svg" xmlns:xlink="http://www.w3.org/1999/xlink" x="0px" y="0px"
	 width="64" height="64"
	 viewBox="0 0 64 64" style="enable-background:new 0 0 64 64;" xml:space="preserve">
<style type="text/css">
	.st0{fill:none;stroke:#0067C5;stroke-width:2;stroke-linecap:round;stroke-miterlimit:10;}
	.st1{fill:none;stroke:#0067C5;stroke-width:2;stroke-miterlimit:10;}
	.st2{fill:none;stroke:#96C3E5;stroke-width:2;stroke-linecap:round;stroke-miterlimit:10;enable-background:new    ;}
	.st3{fill:none;stroke:#96C3E5;stroke-width:2;stroke-linecap:round;stroke-miterlimit:10;}
</style>
<title>workflow</title>
<g id="V3">
	<g id="Frame">
		<path class="st0" d="M45.2,10.4h3.5c0.3,0,0.5,0.2,0.5,0.4c0,0,0,0,0,0.1v47c0,0.3-0.2,0.5-0.4,0.5c0,0,0,0-0.1,0h-35
			c-0.3,0-0.5-0.2-0.5-0.4c0,0,0,0,0-0.1v-47c0-0.3,0.2-0.5,0.4-0.5c0,0,0,0,0.1,0h3.5"/>
		<path class="st1" d="M41.2,7.6h-4.3c-0.9-2.4-3.1-4-5.7-4c-2.6,0-4.8,1.6-5.7,4h-4.3c-2.2,0-4,1.8-4,4c0,2.2,1.8,4,4,4h20
			c2.2,0,4-1.8,4-4S43.4,7.6,41.2,7.6z"/>
	</g>
	<g id="Mid">
		<line class="st0" x1="27.2" y1="35.4" x2="44.2" y2="35.4"/>
		<path class="st0" d="M17.4,41.4h5.5c0.1,0,0.2-0.1,0.2-0.2v-5.5c0-0.1-0.1-0.2-0.2-0.2h-5.5c-0.1,0-0.2,0.1-0.2,0.2v5.5
			C17.2,41.3,17.3,41.4,17.4,41.4z"/>
	</g>
	<g id="Bottom">
		<line class="st0" x1="27.2" y1="47.4" x2="44.2" y2="47.4"/>
		<path class="st0" d="M17.4,53.4h5.5c0.1,0,0.2-0.1,0.2-0.2v-5.5c0-0.1-0.1-0.2-0.2-0.2h-5.5c-0.1,0-0.2,0.1-0.2,0.2v5.5
			C17.2,53.3,17.3,53.4,17.4,53.4z"/>
	</g>
	<g id="Top">
		<line class="st2" x1="27.2" y1="23.4" x2="44.2" y2="23.4"/>
		<g id="X">
			<line class="st3" x1="17.2" y1="23.4" x2="23.2" y2="29.4"/>
			<line class="st3" x1="23.2" y1="23.4" x2="17.2" y2="29.4"/>
		</g>
	</g>
</g>
</svg>
