<?xml version="1.0" encoding="utf-8"?>
<!-- Generator: Adobe Illustrator 22.1.0, SVG Export Plug-In . SVG Version: 6.00 Build 0)  -->
<svg version="1.1" id="Layer_1" xmlns="http://www.w3.org/2000/svg" xmlns:xlink="http://www.w3.org/1999/xlink" x="0px" y="0px"
	 width="64" height="64"
	 viewBox="0 0 64 64" style="enable-background:new 0 0 64 64;" xml:space="preserve">
<style type="text/css">
	.st0{fill:none;stroke:#FFFFFF;stroke-width:3;stroke-linecap:round;stroke-miterlimit:10;}
	.st1{fill:none;stroke:#FFFFFF;stroke-width:3;stroke-miterlimit:10;}
</style>
<g id="Frame">
	<path class="st0" d="M46,11.4h3.5c0.3,0,0.5,0.2,0.5,0.4c0,0,0,0,0,0.1v47c0,0.3-0.2,0.5-0.4,0.5c0,0,0,0-0.1,0h-35
		c-0.3,0-0.5-0.2-0.5-0.4c0,0,0,0,0-0.1v-47c0-0.3,0.2-0.5,0.4-0.5c0,0,0,0,0.1,0H18"/>
	<path class="st1" d="M42,8.6h-4.3c-0.9-2.4-3.1-4-5.7-4s-4.8,1.6-5.7,4H22c-2.2,0-4,1.8-4,4s1.8,4,4,4h20c2.2,0,4-1.8,4-4
		S44.2,8.6,42,8.6z"/>
</g>
<g id="Mid">
	<line class="st0" x1="28" y1="36.4" x2="45" y2="36.4"/>
	<path class="st0" d="M18.2,42.4h5.5c0.1,0,0.2-0.1,0.2-0.2v-5.5c0-0.1-0.1-0.2-0.2-0.2h-5.5c-0.1,0-0.2,0.1-0.2,0.2v5.5
		C18,42.3,18.1,42.4,18.2,42.4z"/>
</g>
<g id="Bottom">
	<line class="st0" x1="28" y1="48.4" x2="45" y2="48.4"/>
	<path class="st0" d="M18.2,54.4h5.5c0.1,0,0.2-0.1,0.2-0.2v-5.5c0-0.1-0.1-0.2-0.2-0.2h-5.5c-0.1,0-0.2,0.1-0.2,0.2v5.5
		C18,54.3,18.1,54.4,18.2,54.4z"/>
</g>
<g id="Top">
	<line class="st0" x1="28" y1="24.4" x2="45" y2="24.4"/>
	<g id="X">
		<line class="st0" x1="18" y1="24.4" x2="24" y2="30.4"/>
		<line class="st0" x1="24" y1="24.4" x2="18" y2="30.4"/>
	</g>
</g>
</svg>

