<svg width="64" height="64" viewBox="0 0 64 64" fill="none" xmlns="http://www.w3.org/2000/svg">
<path fill-rule="evenodd" clip-rule="evenodd" d="M4.49957 20.7374H18.2379C18.4877 20.7374 18.7374 20.4877 18.7374 20.2379V6.49957C18.7374 6.24979 18.4877 6 18.2379 6H4.49957C4.24729 6 4 6.24979 4 6.49957V20.2379C4 20.4877 4.24729 20.7374 4.49957 20.7374Z" fill="#D3D3D3" stroke="#808080" stroke-width="1.96499" stroke-linecap="round"/>
<path fill-rule="evenodd" clip-rule="evenodd" d="M25.1324 39.4049H38.8707C39.1205 39.4049 39.3703 39.1551 39.3703 38.9053V25.1671C39.3703 24.9173 39.1205 24.6675 38.8707 24.6675H25.1324C24.8801 24.6675 24.6328 24.9173 24.6328 25.1671V38.9053C24.6328 39.1551 24.8801 39.4049 25.1324 39.4049Z" fill="#D3D3D3" stroke="#808080" stroke-width="1.96499" stroke-linecap="round"/>
<path fill-rule="evenodd" clip-rule="evenodd" d="M45.8922 57.8898H59.6304C59.8802 57.8898 60.13 57.64 60.13 57.3902V43.6519C60.13 43.4021 59.8802 43.1523 59.6304 43.1523H45.8922C45.6399 43.1523 45.3926 43.4021 45.3926 43.6519V57.3902C45.3926 57.64 45.6399 57.8898 45.8922 57.8898Z" fill="#D3D3D3" stroke="#808080" stroke-width="1.96499" stroke-linecap="round"/>
<path d="M11.3027 20.6094V31.5664H19.8248" stroke="#808080" stroke-width="1.96499" stroke-linejoin="round"/>
<path d="M31.5098 40.3877V51.3447H40.0319" stroke="#808080" stroke-width="1.96499" stroke-linejoin="round"/>
<path d="M24.6973 31.5662L18.3057 35.2564L18.3057 27.876L24.6973 31.5662Z" fill="#808080"/>
<path d="M44.9043 51.3441L38.5127 55.0342L38.5127 47.6539L44.9043 51.3441Z" fill="#808080"/>
<path d="M9.76881 17.4164L6.22978 13.8774C6.01716 13.6647 6.01716 13.32 6.22978 13.1074L6.99975 12.3374C7.21237 12.1247 7.55713 12.1247 7.76975 12.3374L10.1538 14.7214L15.2602 9.61503C15.4728 9.40241 15.8176 9.40241 16.0302 9.61503L16.8002 10.385C17.0128 10.5976 17.0128 10.9424 16.8002 11.155L10.5388 17.4164C10.3262 17.629 9.98143 17.629 9.76881 17.4164Z" fill="white"/>
<path d="M30.4016 36.0844L26.8626 32.5453C26.65 32.3327 26.65 31.988 26.8626 31.7753L27.6326 31.0053C27.8452 30.7927 28.1899 30.7927 28.4026 31.0053L30.7866 33.3894L35.893 28.283C36.1056 28.0704 36.4504 28.0704 36.663 28.283L37.433 29.053C37.6456 29.2656 37.6456 29.6104 37.433 29.823L31.1716 36.0844C30.959 36.297 30.6142 36.297 30.4016 36.0844Z" fill="white"/>
</svg>
