<?xml version="1.0" encoding="utf-8"?>
<!-- Generator: Adobe Illustrator 23.0.4, SVG Export Plug-In . SVG Version: 6.00 Build 0)  -->
<svg version="1.1" id="Line_-_Final" xmlns="http://www.w3.org/2000/svg" xmlns:xlink="http://www.w3.org/1999/xlink" x="0px"
	 y="0px" viewBox="0 0 64 64" style="enable-background:new 0 0 64 64;" xml:space="preserve">
<style type="text/css">
	.st0{fill:#96C3E5;}
	.st1{fill:none;stroke:#96C3E5;stroke-width:2;stroke-linecap:round;stroke-miterlimit:10;}
	.st2{fill:none;stroke:#FFFFFF;stroke-width:2;stroke-linecap:round;stroke-miterlimit:10;}
	.st3{fill:none;stroke:#0067C5;stroke-width:2;stroke-linecap:round;stroke-miterlimit:10;}
</style>
<g>
	<path class="st0" d="M7,6h50c0.6,0,1,0.4,1,1v50c0,0.6-0.4,1-1,1H7c-0.6,0-1-0.4-1-1V7C6,6.4,6.4,6,7,6z"/>
	<path class="st1" d="M7,6h50c0.6,0,1,0.4,1,1v50c0,0.6-0.4,1-1,1H7c-0.6,0-1-0.4-1-1V7C6,6.4,6.4,6,7,6z"/>
	<path class="st2" d="M6,44l11.3-11.3c0.4-0.4,1-0.4,1.4,0l0,0l16.6,16.6c0.4,0.4,1,0.4,1.4,0l0,0L58,28"/>
	<path class="st2" d="M6,20h19.6c0.3,0,0.5,0.1,0.7,0.3l24,24c0.4,0.4,1,0.4,1.4,0l0,0L58,38"/>
	<path class="st3" d="M58,58H7c-0.6,0-1-0.4-1-1V6"/>
	<line class="st3" x1="6" y1="32" x2="10" y2="32"/>
	<line class="st3" x1="32" y1="58" x2="32" y2="54"/>
	<line class="st3" x1="58" y1="58" x2="58" y2="54"/>
	<line class="st3" x1="6" y1="6" x2="10" y2="6"/>
</g>
</svg>
