<svg width="19" height="19" viewBox="0 0 19 19" fill="none" xmlns="http://www.w3.org/2000/svg">
    <path d="M18.5474 16.3444V15.2134H1.5831V2.77295H0.452148V16.3444H18.5474Z" fill="black"/>
    <path d="M12.8979 6.16901V5.04297H9.52002V6.16901H10.646V7.30469H9.52002V10.6982H10.646V11.8262H9.52002V12.9522H12.8979V11.8262H11.772V10.6982H12.898V7.30469H11.772V6.16901H12.8979Z" fill="black"/>
    <path d="M7.23438 3.91748V5.04352H6.10846V6.17725H7.23053V11.8262H6.10846V12.9521H7.25732V14.0782H3.87939V12.9521H4.98242V11.8262H3.85645V6.1709H4.98242V5.04352H3.85645V3.91748H7.23438Z" fill="black"/>
    <path d="M18.5186 3.89899V2.77295H15.1406V3.89899H16.2666V6.17529H15.1406V10.6948H16.2666V12.9585H15.1694V14.0845H18.5474V12.9585H17.3926V10.6948H18.5186V6.17529H17.3926V3.89899H18.5186Z" fill="black"/>
</svg>
