<svg width="19" height="19" viewBox="0 0 19 19" fill="none" xmlns="http://www.w3.org/2000/svg">
    <path d="M16.2502 3.87463C16.2502 4.49871 15.7443 5.00463 15.1202 5.00463C14.4962 5.00463 13.9902 4.49871 13.9902 3.87463C13.9902 3.25055 14.4962 2.74463 15.1202 2.74463C15.7443 2.74463 16.2502 3.25055 16.2502 3.87463Z" fill="black"/>
    <path d="M18.5474 15.2134V16.3444H0.452148V2.77295H1.5831V15.2134H18.5474Z" fill="black"/>
    <path d="M4.97168 12.9546C4.97168 13.5786 4.46581 14.0845 3.8418 14.0845C3.21778 14.0845 2.71191 13.5786 2.71191 12.9546C2.71191 12.3306 3.21778 11.8247 3.8418 11.8247C4.46581 11.8247 4.97168 12.3306 4.97168 12.9546Z" fill="black"/>
    <path d="M6.10168 10.6951C6.72576 10.6951 7.23168 10.1891 7.23168 9.56506C7.23168 8.94098 6.72576 8.43506 6.10168 8.43506C5.4776 8.43506 4.97168 8.94098 4.97168 9.56506C4.97168 10.1891 5.4776 10.6951 6.10168 10.6951Z" fill="black"/>
    <path d="M9.49145 11.8248C9.49145 12.4489 8.98553 12.9548 8.36145 12.9548C7.73736 12.9548 7.23145 12.4489 7.23145 11.8248C7.23145 11.2007 7.73736 10.6948 8.36145 10.6948C8.98553 10.6948 9.49145 11.2007 9.49145 11.8248Z" fill="black"/>
    <path d="M10.6212 10.6951C11.2453 10.6951 11.7512 10.1891 11.7512 9.56506C11.7512 8.94098 11.2453 8.43506 10.6212 8.43506C9.99713 8.43506 9.49121 8.94098 9.49121 9.56506C9.49121 10.1891 9.99713 10.6951 10.6212 10.6951Z" fill="black"/>
    <path d="M14.011 7.30529C14.011 7.92937 13.5051 8.43529 12.881 8.43529C12.2569 8.43529 11.751 7.92937 11.751 7.30529C11.751 6.68121 12.2569 6.17529 12.881 6.17529C13.5051 6.17529 14.011 6.68121 14.011 7.30529Z" fill="black"/>
    <path d="M12.881 14.0847C13.5051 14.0847 14.011 13.5788 14.011 12.9547C14.011 12.3306 13.5051 11.8247 12.881 11.8247C12.2569 11.8247 11.751 12.3306 11.751 12.9547C11.751 13.5788 12.2569 14.0847 12.881 14.0847Z" fill="black"/>
    <path d="M17.4005 8.43529C18.0246 8.43529 18.5305 7.92937 18.5305 7.30529C18.5305 6.68121 18.0246 6.17529 17.4005 6.17529C16.7764 6.17529 16.2705 6.68121 16.2705 7.30529C16.2705 7.92937 16.7764 8.43529 17.4005 8.43529Z" fill="black"/>
</svg>
